<?xml version="1.0" encoding="UTF-8"?>
<svg version="1.1" xmlns="http://www.w3.org/2000/svg" width="170" height="200">
<path d="M0 0 C56.1 0 112.2 0 170 0 C170 66 170 132 170 200 C113.9 200 57.8 200 0 200 C0 134 0 68 0 0 Z " fill="#5E2F2E" transform="translate(0,0)"/>
<path d="M0 0 C0.70074838 1.31574083 1.37248908 2.64779726 2 4 C3.32148827 4.37756808 4.65835921 4.7018576 6 5 C9.25 6.9375 9.25 6.9375 12 9 C12 9.66 12 10.32 12 11 C12.66 11 13.32 11 14 11 C14 11.66 14 12.32 14 13 C15.485 13.495 15.485 13.495 17 14 C19.33576832 17.12090053 21.11706365 20.59170415 23 24 C23.556875 24.96035156 24.11375 25.92070313 24.6875 26.91015625 C28.62122625 34.08731543 29.78490087 39.89076265 30 48 C30.17479564 49.89704685 30.36196805 51.7930008 30.5625 53.6875 C30.98862416 58.50759295 31.30707275 63.16360418 31 68 C30.01 68.66 29.02 69.32 28 70 C27.34 69.67 26.68 69.34 26 69 C26.0928125 70.5159375 26.0928125 70.5159375 26.1875 72.0625 C25.95560202 76.93235752 24.71033755 80.6863395 21.79296875 84.6328125 C19.2006718 86.60950952 16.83487966 86.72101057 13.625 87.125 C9.71385418 87.63749497 5.8588422 88.17620223 2 89 C1.505 90.485 1.505 90.485 1 92 C0.47148438 92.46535156 -0.05703125 92.93070312 -0.6015625 93.41015625 C-2.24426845 94.90546726 -2.24426845 94.90546726 -1.8984375 97.05859375 C-1.72570312 97.84363281 -1.55296875 98.62867187 -1.375 99.4375 C-0.45015448 106.04771165 -2.91186747 111.24277358 -6 117 C-6.66 117.66 -7.32 118.32 -8 119 C-8.33 117.35 -8.66 115.7 -9 114 C-12.33142278 113.49874717 -12.33142278 113.49874717 -16 114 C-16.61875 114.969375 -17.2375 115.93875 -17.875 116.9375 C-20 120 -20 120 -22.2421875 120.62109375 C-24.5054432 120.85023958 -26.72575023 120.99028098 -29 121 C-29 118.69 -29 116.38 -29 114 C-31.97 113.34 -34.94 112.68 -38 112 C-38 114.64 -38 117.28 -38 120 C-41.28241048 118.46137009 -43.74305587 116.86477456 -46 114 C-46.46808104 110.32835516 -46.32014321 107.02231198 -45.98828125 103.33984375 C-46.00593481 98.30857811 -48.13792521 95.97550568 -51.375 92.3125 C-55.30287311 88.85223083 -58.39426269 88.01052 -63.5 87.5625 C-68.65761265 87.05785797 -71.43441488 85.4351197 -75.25 81.9375 C-77.35454268 78.40487479 -77.55719401 75.74712786 -77.7265625 71.6953125 C-77.92050147 68.87634482 -77.92050147 68.87634482 -79.00488281 65.81176758 C-80.05127199 61.80360412 -80.2285217 58.45095194 -80.1953125 54.31640625 C-80.1924826 53.61603745 -80.18965271 52.91566864 -80.18673706 52.19407654 C-80.17564885 49.9833683 -80.15056703 47.77308329 -80.125 45.5625 C-80.11495546 44.05274028 -80.1058322 42.54297412 -80.09765625 41.03320312 C-80.07574714 37.35533403 -80.04129758 33.6777084 -80 30 C-83.563916 32.05051209 -83.563916 32.05051209 -86.6875 34.6875 C-87.120625 35.120625 -87.55375 35.55375 -88 36 C-88.66 36 -89.32 36 -90 36 C-90 34 -90 34 -88.390625 32.30859375 C-87.33101562 31.38240234 -87.33101562 31.38240234 -86.25 30.4375 C-85.20585938 29.50744141 -85.20585938 29.50744141 -84.140625 28.55859375 C-82 27 -82 27 -79.9375 26.6015625 C-76.93030741 25.6678777 -76.26838779 23.61679108 -74.75 20.9375 C-66.16226457 6.98468038 -52.59550092 -1.17523081 -36.8671875 -5.34765625 C-35.92101562 -5.56292969 -34.97484375 -5.77820313 -34 -6 C-33.26007813 -6.18433594 -32.52015625 -6.36867188 -31.7578125 -6.55859375 C-22.43512043 -8.2648223 -7.7172604 -5.59030814 0 0 Z " fill="#6E6D6D" transform="translate(111,21)"/>
<path d="M0 0 C2.44921875 0.06640625 2.44921875 0.06640625 5 1 C6.51171875 3.25 6.51171875 3.25 7.6875 6 C9.0620125 9.71960116 9.0620125 9.71960116 12 12 C13.95465884 15.98449687 15 18.52274716 15 23 C16.32 23.33 17.64 23.66 19 24 C19 65.91 19 107.82 19 151 C-28.85 151 -76.7 151 -126 151 C-126 149.35 -126 147.7 -126 146 C-123.525 145.01 -123.525 145.01 -121 144 C-121.680625 143.443125 -122.36125 142.88625 -123.0625 142.3125 C-124.0215625 141.1678125 -124.0215625 141.1678125 -125 140 C-124.75 137.25 -124.75 137.25 -124 135 C-123.34 135 -122.68 135 -122 135 C-122 134.01 -122 133.02 -122 132 C-124.64 132 -127.28 132 -130 132 C-130.33 131.34 -130.66 130.68 -131 130 C-127.7 130.33 -124.4 130.66 -121 131 C-120.3125 133.1875 -120.3125 133.1875 -120 136 C-121.48046875 138.67578125 -121.48046875 138.67578125 -123 141 C-113.48679154 141.11442003 -108.29632045 138.91153236 -101 133 C-96.17188841 129.14718812 -91.62510656 126.86042815 -85.75 125 C-80.62418192 123.30176038 -75.7347842 121.50777508 -70.875 119.125 C-66.63479831 117.16749335 -63.72606332 116.05478734 -59 117 C-56.48754455 118.38857641 -54.09769702 119.91155507 -51.69140625 121.4765625 C-48.07051056 123.5261261 -44.43467597 124.38318203 -40.41796875 125.36328125 C-36.23909252 126.46369615 -33.77523629 127.79063139 -31.4375 131.4375 C-30.963125 132.283125 -30.48875 133.12875 -30 134 C-26.40700624 138.19182605 -23.14497802 139.73344939 -17.66796875 140.4140625 C-16.51941406 140.48367187 -15.37085938 140.55328125 -14.1875 140.625 C-12.44533203 140.73714844 -12.44533203 140.73714844 -10.66796875 140.8515625 C-9.34732422 140.92503906 -9.34732422 140.92503906 -8 141 C-8.17917969 140.38511719 -8.35835938 139.77023438 -8.54296875 139.13671875 C-8.75566406 138.32847656 -8.96835938 137.52023438 -9.1875 136.6875 C-9.40792969 135.88699219 -9.62835938 135.08648437 -9.85546875 134.26171875 C-10 132 -10 132 -8.75 130.25 C-6.29592392 128.49708852 -3.95525904 128.32836212 -1 128 C-2.72226496 124.75150023 -2.72226496 124.75150023 -6 124 C-6 123.34 -6 122.68 -6 122 C-8.0379507 121.46481117 -10.08059009 120.94745907 -12.125 120.4375 C-13.26195312 120.14746094 -14.39890625 119.85742188 -15.5703125 119.55859375 C-18.92518906 118.79261202 -18.92518906 118.79261202 -21.90625 119.65625 C-26.48784356 120.16531595 -29.42381823 118.22386073 -33.375 116.0625 C-34.11105469 115.67642578 -34.84710938 115.29035156 -35.60546875 114.89257812 C-37.41128335 113.94276655 -39.20673757 112.97330277 -41 112 C-39.34809616 108.11843284 -37.39105309 106.61181205 -33.53125 104.80078125 C-29.52411443 103.53309176 -25.5083192 103.53822208 -21.33203125 103.34375 C-16.18928898 102.81319746 -11.73570065 100.9800839 -7 99 C-6.01 98.67 -5.02 98.34 -4 98 C-4 97.34 -4 96.68 -4 96 C-2.68 95.67 -1.36 95.34 0 95 C0 94.01 0 93.02 0 92 C-2.64 92 -5.28 92 -8 92 C-8.625 89.6875 -8.625 89.6875 -9 87 C-7 84 -7 84 -4 83 C-4 81.35 -4 79.7 -4 78 C-14.1199518 77.5600021 -20.65663876 79.17102538 -28.40625 85.890625 C-33.01402973 89.63791575 -38.90834264 94 -45 94 C-43.97224976 91.31203785 -42.9229699 88.87038764 -41.44921875 86.390625 C-39.33470877 81.44346956 -39.59691633 76.77229823 -39.6484375 71.45703125 C-39.5306353 65.5767382 -39.5306353 65.5767382 -36.70703125 62.5078125 C-34.33015421 61.18389542 -32.71023591 60.41944331 -30.0625 60 C-25.86617307 59.20877337 -21.79777668 58.16215723 -17.6875 57 C-16.51574219 56.67 -15.34398437 56.34 -14.13671875 56 C-11.55642554 55.17739096 -9.38658227 54.24028636 -7 53 C-7.07017159 48.59275901 -7.15870637 44.18633357 -7.26245117 39.77978516 C-7.29518607 38.28867074 -7.32336744 36.79744763 -7.34643555 35.30615234 C-7.51665914 24.57844407 -8.70314673 14.48266446 -11 4 C-9.88882813 4.04253906 -8.77765625 4.08507813 -7.6328125 4.12890625 C-3.24715171 3.97328603 -2.90288782 2.99965075 0 0 Z " fill="#4C0202" transform="translate(151,49)"/>
<path d="M0 0 C2.44921875 0.06640625 2.44921875 0.06640625 5 1 C6.51171875 3.25 6.51171875 3.25 7.6875 6 C9.0620125 9.71960116 9.0620125 9.71960116 12 12 C13.95465884 15.98449687 15 18.52274716 15 23 C16.32 23.33 17.64 23.66 19 24 C19 57.66 19 91.32 19 126 C8.14285714 124.79365079 8.14285714 124.79365079 5 122 C3.61136863 119.73411947 2.37897345 117.44562024 1.2109375 115.05859375 C0.02652228 112.7028443 0.02652228 112.7028443 -3 111 C-3 110.34 -3 109.68 -3 109 C-3.66 109 -4.32 109 -5 109 C-5 108.34 -5 107.68 -5 107 C-5.99 107 -6.98 107 -8 107 C-7.67 105.35 -7.34 103.7 -7 102 C-6.01 102 -5.02 102 -4 102 C-3.9175 101.401875 -3.835 100.80375 -3.75 100.1875 C-2.79394921 97.39901853 -1.32024306 96.72147066 1 95 C1 94.01 1 93.02 1 92 C-1.31 91.34 -3.62 90.68 -6 90 C-4.92598892 87.08482708 -4.22189824 85.22189824 -2 83 C-2.40528901 80.21762345 -2.40528901 80.21762345 -4 78 C-14.04127989 77.35906724 -20.76613971 79.26597241 -28.40625 85.890625 C-33.01402973 89.63791575 -38.90834264 94 -45 94 C-43.97224976 91.31203785 -42.9229699 88.87038764 -41.44921875 86.390625 C-39.33470877 81.44346956 -39.59691633 76.77229823 -39.6484375 71.45703125 C-39.5306353 65.5767382 -39.5306353 65.5767382 -36.70703125 62.5078125 C-34.33015421 61.18389542 -32.71023591 60.41944331 -30.0625 60 C-25.86617307 59.20877337 -21.79777668 58.16215723 -17.6875 57 C-15.92986328 56.505 -15.92986328 56.505 -14.13671875 56 C-11.55642554 55.17739096 -9.38658227 54.24028636 -7 53 C-7.07017159 48.59275901 -7.15870637 44.18633357 -7.26245117 39.77978516 C-7.29518607 38.28867074 -7.32336744 36.79744763 -7.34643555 35.30615234 C-7.51665914 24.57844407 -8.70314673 14.48266446 -11 4 C-9.88882813 4.04253906 -8.77765625 4.08507813 -7.6328125 4.12890625 C-3.24715171 3.97328603 -2.90288782 2.99965075 0 0 Z " fill="#870907" transform="translate(151,49)"/>
<path d="M0 0 C0.99 0.66 1.98 1.32 3 2 C3 2.66 3 3.32 3 4 C3.66 4 4.32 4 5 4 C12.99524093 17.84889946 12.99524093 17.84889946 11 26 C9.58984375 27.52734375 9.58984375 27.52734375 8 29 C7.3065505 30.31960222 6.6363436 31.65193136 6 33 C4.68644531 32.979375 3.37289062 32.95875 2.01953125 32.9375 C0.28383057 32.95626433 -1.45184747 32.97721244 -3.1875 33 C-4.05181641 32.98066406 -4.91613281 32.96132812 -5.80664062 32.94140625 C-8.42419053 33.00157981 -10.51757135 33.15455731 -13 34 C-14.75107847 35.89385099 -15.82040039 37.69281902 -16.93994141 40.01049805 C-18.6302749 43.18289042 -21.18674089 44.81190958 -24 47 C-24.66 47.99 -25.32 48.98 -26 50 C-26.87011719 49.85691406 -26.87011719 49.85691406 -27.7578125 49.7109375 C-32.91392751 48.97921161 -36.02856578 49.30519288 -41 51 C-43.671875 50.05859375 -43.671875 50.05859375 -46 49 C-46.02578125 48.22914062 -46.0515625 47.45828125 -46.078125 46.6640625 C-46.13484375 45.66117188 -46.1915625 44.65828125 -46.25 43.625 C-46.29640625 42.62726563 -46.3428125 41.62953125 -46.390625 40.6015625 C-46.59171875 39.74304688 -46.7928125 38.88453125 -47 38 C-48.92744462 36.72354306 -48.92744462 36.72354306 -51 36 C-51.33 35.34 -51.66 34.68 -52 34 C-54.79192205 33.94619422 -57.5828141 33.90642331 -60.375 33.875 C-61.56609375 33.84986328 -61.56609375 33.84986328 -62.78125 33.82421875 C-64.85492015 33.80664527 -66.92883241 33.89664832 -69 34 C-69.66 34.66 -70.32 35.32 -71 36 C-71.28875 35.195625 -71.5775 34.39125 -71.875 33.5625 C-72.73262568 30.8673532 -72.73262568 30.8673532 -75 30 C-77.05958 23.82126 -77.99103916 17.48773056 -77 11 C-74.875 8.125 -74.875 8.125 -72 6 C-71.13375 5.071875 -70.2675 4.14375 -69.375 3.1875 C-65.80618689 0.23975307 -62.14213234 0.52139539 -57.68359375 0.62890625 C-53.06817331 1.26713761 -49.82377785 2.84304865 -46.375 5.9375 C-45.80523437 6.44152344 -45.23546875 6.94554688 -44.6484375 7.46484375 C-44.10445312 7.97144531 -43.56046875 8.47804688 -43 9 C-42.43539062 9.51691406 -41.87078125 10.03382812 -41.2890625 10.56640625 C-40 12 -40 12 -40 14 C-35.95191201 14.59034617 -32.46844001 14.87945034 -28.8671875 12.72265625 C-26.02210558 10.26249718 -23.5740752 7.87764376 -21.5078125 4.71875 C-16.13970573 -3.18043301 -8.46505401 -1.65944891 0 0 Z " fill="#574D4D" transform="translate(120,58)"/>
<path d="M0 0 C0 1.65 0 3.3 0 5 C-0.9590625 5.309375 -0.9590625 5.309375 -1.9375 5.625 C-4.34925077 6.89538209 -4.34925077 6.89538209 -4.75 10.125 C-4.8325 11.07375 -4.915 12.0225 -5 13 C-2.36 13.33 0.28 13.66 3 14 C3 14.99 3 15.98 3 17 C1.68 17.33 0.36 17.66 -1 18 C-1 18.66 -1 19.32 -1 20 C-7.15551572 24.56699553 -14.04991913 26.06317674 -21.5625 26.4375 C-27.39939645 26.77279651 -31.10299907 27.79811477 -36 31 C-36.33 31.99 -36.66 32.98 -37 34 C-34.67706812 35.21288501 -32.34529655 36.394302 -30 37.5625 C-29.35160156 37.90474609 -28.70320313 38.24699219 -28.03515625 38.59960938 C-24.40155494 40.38043378 -21.92198265 41.24463971 -17.875 40.59375 C-13.72467973 39.95781383 -11.81998105 40.36175782 -8 41.9375 C-7.05125 42.31777344 -6.1025 42.69804687 -5.125 43.08984375 C-4.42375 43.39019531 -3.7225 43.69054687 -3 44 C-3 44.66 -3 45.32 -3 46 C-2.360625 46.103125 -1.72125 46.20625 -1.0625 46.3125 C-0.381875 46.539375 0.29875 46.76625 1 47 C1.33 47.99 1.66 48.98 2 50 C-0.64 50.66 -3.28 51.32 -6 52 C-6.042721 53.66611905 -6.04063832 55.33382885 -6 57 C-5.67 57.33 -5.34 57.66 -5 58 C-4.95936168 59.66617115 -4.957279 61.33388095 -5 63 C-19.77043678 63.59169406 -19.77043678 63.59169406 -25.68359375 58.5703125 C-27.375 57 -27.375 57 -30 54 C-30 53.01 -30 52.02 -30 51 C-30.87398437 50.76216797 -30.87398437 50.76216797 -31.765625 50.51953125 C-48.9675202 45.62402334 -48.9675202 45.62402334 -53.9140625 41.34375 C-57.14072544 39.26515065 -59.20005878 39.55496184 -63 40 C-66.58830399 41.20582771 -69.99853883 42.73600394 -73.4375 44.3125 C-75.24795848 45.12274801 -77.05914662 45.93136779 -78.87109375 46.73828125 C-79.73992187 47.12894775 -80.60875 47.51961426 -81.50390625 47.92211914 C-83.7613294 48.89693557 -86.02315531 49.75699612 -88.33984375 50.578125 C-91.72387308 51.89273191 -94.22537097 53.28909499 -97.125 55.4375 C-98.39923828 56.35015625 -98.39923828 56.35015625 -99.69921875 57.28125 C-101.48492302 58.61522263 -103.22218466 60.01415323 -104.9375 61.4375 C-109.52860726 63.77990166 -113.94297721 63.3239374 -119 63 C-118.34 61.68 -117.68 60.36 -117 59 C-116.34 59 -115.68 59 -115 59 C-115.33 56.69 -115.66 54.38 -116 52 C-118.97 52 -121.94 52 -125 52 C-125 47.5666756 -124.71646203 46.39557754 -122 43 C-116.44732892 39.23479833 -111.44591519 38.48986908 -104.875 38.5 C-95.75162585 38.27765292 -87.08913634 37.08269335 -78.81640625 32.89453125 C-77 32 -77 32 -73.875 31.625 C-69.73297119 30.95693084 -66.40113006 29.66027644 -62.5546875 28.046875 C-57.74161771 26.07454671 -52.77259024 24.55610674 -47.8125 23 C-42.4561892 21.09553394 -38.40465414 18.54819361 -34 15 C-33.34 15 -32.68 15 -32 15 C-32 14.34 -32 13.68 -32 13 C-30.68 13 -29.36 13 -28 13 C-27.67 12.01 -27.34 11.02 -27 10 C-23.52016451 7.66975302 -19.74095831 5.8753757 -16 4 C-15.18015625 3.57847656 -14.3603125 3.15695313 -13.515625 2.72265625 C-8.75273996 0.41512057 -5.28859671 -0.45009334 0 0 Z " fill="#525151" transform="translate(148,127)"/>
<path d="M0 0 C51.81 0 103.62 0 157 0 C157 1.98 157 3.96 157 6 C157.33 6.33 157.66 6.66 158 7 C158.07226502 8.85287502 158.0838122 10.70833878 158.0625 12.5625 C158.05347656 13.57441406 158.04445312 14.58632812 158.03515625 15.62890625 C158.01775391 16.80259766 158.01775391 16.80259766 158 18 C157.34 18.33 156.68 18.66 156 19 C154.83984375 11.265625 154.83984375 11.265625 156 7 C145.57537536 6.97658772 135.15075722 6.95894044 124.72611141 6.94818783 C119.88290907 6.94302105 115.03972502 6.93603976 110.1965332 6.92456055 C83.93793625 6.79564561 83.93793625 6.79564561 57.69902039 7.65431213 C51.05864784 8.00166151 44.44560041 8.04820131 37.796875 7.9921875 C36.79918594 7.98431717 35.80149689 7.97644684 34.77357483 7.96833801 C30.72093931 7.93195814 26.66857054 7.88859679 22.61621094 7.82861328 C19.59306548 7.78655952 16.57023068 7.76297691 13.546875 7.7421875 C12.62831726 7.72356659 11.70975952 7.70494568 10.7633667 7.6857605 C9.91687561 7.68230621 9.07038452 7.67885193 8.19824219 7.67529297 C7.08651642 7.66077591 7.08651642 7.66077591 5.95233154 7.64596558 C3.92920194 7.87722782 3.92920194 7.87722782 2.25889587 9.17771912 C0.51920998 11.69595466 0.6388753 13.43317002 0.65942383 16.48120117 C0.65965042 17.60213669 0.65987701 18.7230722 0.66011047 19.87797546 C0.67559433 21.08742325 0.69107819 22.29687103 0.70703125 23.54296875 C0.71127609 24.78170242 0.71552094 26.0204361 0.71989441 27.29670715 C0.73385267 30.58649001 0.76079787 33.87583203 0.79400635 37.16546631 C0.82472067 40.52366746 0.83840261 43.88193318 0.85351562 47.24023438 C0.88662641 53.82699574 0.93685743 60.4134618 1 67 C0.01 67.495 0.01 67.495 -1 68 C-2.21496179 57.50994438 -2.18615714 47.01884609 -2.18530273 36.47290039 C-2.18749763 33.44077684 -2.20573407 30.40901305 -2.22460938 27.37695312 C-2.22754293 25.41666789 -2.22952798 23.45638096 -2.23046875 21.49609375 C-2.23765427 20.60619247 -2.24483978 19.7162912 -2.25224304 18.79942322 C-2.22841721 12.12885429 -1.23394376 6.7866907 0 0 Z " fill="#5F4343" transform="translate(7,0)"/>
<path d="M0 0 C3.17294096 1.23161851 6.29682983 2.54318711 9.41845703 3.89941406 C10.49289063 4.34671875 11.56732422 4.79402344 12.67431641 5.25488281 C21.65370894 9.07182835 21.65370894 9.07182835 23.98095703 12.02441406 C24.23095703 14.64941406 24.23095703 14.64941406 23.98095703 17.02441406 C23.48595703 17.51941406 23.48595703 17.51941406 22.98095703 18.02441406 C23.64095703 18.35441406 24.30095703 18.68441406 24.98095703 19.02441406 C24.60595703 21.46191406 24.60595703 21.46191406 23.98095703 24.02441406 C22.99095703 24.51941406 22.99095703 24.51941406 21.98095703 25.02441406 C21.65095703 26.34441406 21.32095703 27.66441406 20.98095703 29.02441406 C5.47095703 29.02441406 -10.03904297 29.02441406 -26.01904297 29.02441406 C-25.68904297 24.40441406 -25.35904297 19.78441406 -25.01904297 15.02441406 C-23.36904297 15.02441406 -21.71904297 15.02441406 -20.01904297 15.02441406 C-17.92896015 13.6471105 -17.92896015 13.6471105 -16.20654297 11.71191406 C-15.60197266 11.09703125 -14.99740234 10.48214844 -14.37451172 9.84863281 C-12.7208335 8.00185723 -12.7208335 8.00185723 -13.01904297 5.02441406 C-14.00904297 4.69441406 -14.99904297 4.36441406 -16.01904297 4.02441406 C-15.64404297 1.58691406 -15.64404297 1.58691406 -15.01904297 -0.97558594 C-10.491899 -3.23915792 -4.59681813 -1.48543468 0 0 Z " fill="#510000" transform="translate(95.01904296875,170.9755859375)"/>
<path d="M0 0 C9.10036408 -0.64187521 15.25528445 0.12617038 23 5 C23.68578125 5.41894531 24.3715625 5.83789062 25.078125 6.26953125 C26.38907986 7.08242649 27.69396113 7.90520886 28.9921875 8.73828125 C34.08665277 11.93966701 39.3147926 14.98266834 45 17 C44.34 15.35 43.68 13.7 43 12 C45.66666667 13.33333333 48.33333333 14.66666667 51 16 C51.66 14.35 52.32 12.7 53 11 C53.99 11 54.98 11 56 11 C56.66 12.65 57.32 14.3 58 16 C61.96 16.33 65.92 16.66 70 17 C70.66 15.68 71.32 14.36 72 13 C73 12 73 12 75.5625 11.9375 C76.366875 11.958125 77.17125 11.97875 78 12 C78 13.98 78 15.96 78 18 C81.47917182 15.68055212 82.29429766 13.73630036 84 10 C84.99 10.99 84.99 10.99 86 12 C85.01 13.65 84.02 15.3 83 17 C89.95322836 13.79390047 96.43714096 10.76678737 102.25 5.6875 C108.75824278 0.16244003 115.72550113 -0.35976082 124 0 C124 0.33 124 0.66 124 1 C123.26136719 1.13535156 122.52273437 1.27070312 121.76171875 1.41015625 C114.59238243 2.93147666 109.29085174 5.29094901 103.27734375 9.4765625 C101 11 101 11 98 12 C97.67 12.66 97.34 13.32 97 14 C95.68 14 94.36 14 93 14 C93 14.66 93 15.32 93 16 C88.30378174 20.48388924 83.12281626 23.08734883 77 25 C75.58310805 25.4785001 74.16645009 25.95769348 72.75 26.4375 C70.10111849 27.31274232 67.44953636 28.17923633 64.796875 29.04296875 C63.16492188 29.57857422 63.16492188 29.57857422 61.5 30.125 C60.4790625 30.45757812 59.458125 30.79015625 58.40625 31.1328125 C56.07969125 31.77848043 56.07969125 31.77848043 55 33 C53.72125 33.268125 52.4425 33.53625 51.125 33.8125 C46.41979035 34.80465283 42.05628684 36.36269589 37.578125 38.09765625 C31.22232258 40.3221871 24.88139634 40.2628485 18.21289062 40.34179688 C12.22483552 40.5469653 8.14497603 42.00987084 3 45 C1.93591919 45.4782019 1.93591919 45.4782019 0.8503418 45.96606445 C-1.76095025 47.42520442 -2.12464122 49.22803052 -3 52 C-3.495 50.515 -3.495 50.515 -4 49 C2.17627064 42.46041932 7.23614013 39.20109593 16.20922852 38.35351562 C23.48713085 37.66507534 30.23442997 36.95224874 37 34 C37.495 33.01 37.495 33.01 38 32 C37.33468262 31.91435791 36.66936523 31.82871582 35.98388672 31.74047852 C32.94744268 31.3489607 29.91122075 30.95574546 26.875 30.5625 C25.82828125 30.42779297 24.7815625 30.29308594 23.703125 30.15429688 C18.78620647 29.51634226 13.88256235 28.87007599 9 28 C9 27.34 9 26.68 9 26 C7.68 25.67 6.36 25.34 5 25 C8.01031744 24.06576355 8.86650268 23.95550089 12 25 C13.55990925 25.1539947 15.12324021 25.27438911 16.6875 25.375 C22.44676109 25.84593154 28.03163823 26.86385648 33.69213867 27.98388672 C37.31826684 28.73444402 37.31826684 28.73444402 41 29 C41.495 31.475 41.495 31.475 42 34 C43.04800781 33.6390625 44.09601563 33.278125 45.17578125 32.90625 C46.55460651 32.43726182 47.93351725 31.9685249 49.3125 31.5 C50.00279297 31.26152344 50.69308594 31.02304688 51.40429688 30.77734375 C54.38931489 29.76791737 56.82658914 29 60 29 C57.28953527 25.58644479 53.57305038 24.42754604 49.625 22.9375 C48.965 22.68162109 48.305 22.42574219 47.625 22.16210938 C45.75193573 21.43639025 43.87603208 20.71801228 42 20 C29.95713107 15.25166882 29.95713107 15.25166882 25.4375 10.4375 C22.28852768 7.08813853 19.39319992 5.51765088 15 4 C14.030625 3.62875 13.06125 3.2575 12.0625 2.875 C8.36034543 1.81724155 4.82845541 1.39604711 1 1 C1 2.65 1 4.3 1 6 C-0.0625 4.125 -0.0625 4.125 -1 2 C-0.67 1.34 -0.34 0.68 0 0 Z " fill="#342121" transform="translate(23,126)"/>
<path d="M0 0 C7.19693986 -0.52341381 13.08329375 0.77346225 18.7734375 5.4609375 C19.59714844 6.22277344 19.59714844 6.22277344 20.4375 7 C24.46462175 10.68537059 28.93272152 12.15669613 34 14 C36.00412652 14.82335977 38.00404091 15.65703396 40 16.5 C42.96838109 17.75186576 45.93114888 18.97428342 48.94921875 20.1015625 C49.85285156 20.43929687 50.75648437 20.77703125 51.6875 21.125 C52.89986328 21.56199219 52.89986328 21.56199219 54.13671875 22.0078125 C56 23 56 23 57 26 C54.37605694 26.83679277 51.75095616 27.66956942 49.125 28.5 C48.37863281 28.73847656 47.63226563 28.97695312 46.86328125 29.22265625 C41.2265625 31 41.2265625 31 39 31 C38.81308594 30.36449219 38.62617187 29.72898438 38.43359375 29.07421875 C37.09951605 26.65684555 37.09951605 26.65684555 33.84765625 26.20703125 C32.59855469 26.07683594 31.34945312 25.94664062 30.0625 25.8125 C23.13931889 25.04643963 23.13931889 25.04643963 20 24 C18.31400752 23.87376096 16.62607213 23.77253601 14.9375 23.6875 C7.97343414 23.09638566 1.94743136 21.19343729 -3.6875 17 C-5 15 -5 15 -4.75 12.75 C-4.5025 12.1725 -4.255 11.595 -4 11 C-1.69 11 0.62 11 3 11 C2.690625 10.113125 2.38125 9.22625 2.0625 8.3125 C1.1709329 5.53290845 0.50622993 2.86863625 0 0 Z " fill="#4B4A4B" transform="translate(26,129)"/>
<path d="M0 0 C4.70507027 1.68038224 9.44576202 4.45323109 12.11328125 8.82421875 C13.7332892 12.79930434 13.66839042 16.79774339 13 21 C11.31712073 24.12177233 9.2172593 26.39137035 6 28 C3.23453858 28.17794636 0.51736725 28.27761722 -2.25 28.3125 C-3.00152344 28.34150391 -3.75304687 28.37050781 -4.52734375 28.40039062 C-11.07652972 28.47468331 -14.50043219 26.23645541 -19.375 21.875 C-21.78997203 17.60235718 -21.88080785 13.79219184 -21 9 C-16.47681266 -0.42618431 -9.70081265 -0.7775004 0 0 Z " fill="#9E0000" transform="translate(117,61)"/>
<path d="M0 0 C0.84304687 0.26425781 1.68609375 0.52851562 2.5546875 0.80078125 C5.10770832 1.68153463 7.61748684 2.68449473 10.125 3.6875 C10.125 11.9375 10.125 20.1875 10.125 28.6875 C2.085 31.3675 2.085 31.3675 -0.875 31.6875 C-1.865 31.0275 -2.855 30.3675 -3.875 29.6875 C-4.535 30.0175 -5.195 30.3475 -5.875 30.6875 C-8.56513339 30.87454404 -11.17186177 30.77331391 -13.875 30.6875 C-14.875 29.6875 -14.875 29.6875 -15.0625 26.5625 C-14.87004152 22.58502483 -14.28858397 19.40745781 -12.875 15.6875 C-11.885 15.3575 -10.895 15.0275 -9.875 14.6875 C-10.10316406 14.15640625 -10.33132812 13.6253125 -10.56640625 13.078125 C-10.99759766 12.01851562 -10.99759766 12.01851562 -11.4375 10.9375 C-11.72753906 10.24140625 -12.01757812 9.5453125 -12.31640625 8.828125 C-12.96481224 6.34332441 -12.78976528 5.0679113 -11.875 2.6875 C-7.84485693 -0.93962876 -5.11655419 -1.64071875 0 0 Z " fill="#B30B09" transform="translate(159.875,79.3125)"/>
<path d="M0 0 C0.66 0.33 1.32 0.66 2 1 C1.38545304 4.99455527 -0.70646737 7.74466336 -3 11 C-0.69 11.33 1.62 11.66 4 12 C4.495 13.98 4.495 13.98 5 16 C3.7934375 16.8971875 3.7934375 16.8971875 2.5625 17.8125 C-0.22327984 19.80947276 -0.22327984 19.80947276 -1 23 C-1.99 23.33 -2.98 23.66 -4 24 C-4.73323796 26.01508358 -4.73323796 26.01508358 -5 28 C-4.01 28 -3.02 28 -2 28 C-2 28.66 -2 29.32 -2 30 C-1.34 30 -0.68 30 0 30 C1.74503942 31.96876242 3.38406149 33.93180197 5 36 C5.598125 36.721875 6.19625 37.44375 6.8125 38.1875 C8 40 8 40 8 43 C14.88824069 45.40990104 14.88824069 45.40990104 22 47 C22 47.66 22 48.32 22 49 C12.81513141 47.93199202 3.33190345 46.74892759 -4.21875 41.0859375 C-8.15028601 38.68908002 -12.48585 38.91414025 -16.97875977 38.81030273 C-25.02538173 38.59061492 -31.13217947 37.57292227 -38 33 C-36.34809616 29.11843284 -34.39105309 27.61181205 -30.53125 25.80078125 C-26.52411443 24.53309176 -22.5083192 24.53822208 -18.33203125 24.34375 C-13.18928898 23.81319746 -8.73570065 21.9800839 -4 20 C-3.01 19.67 -2.02 19.34 -1 19 C-1 18.34 -1 17.68 -1 17 C0.32 16.67 1.64 16.34 3 16 C3 15.01 3 14.02 3 13 C0.36 13 -2.28 13 -5 13 C-5.625 10.6875 -5.625 10.6875 -6 8 C-4 5 -4 5 -1 4 C-0.26676204 1.98491642 -0.26676204 1.98491642 0 0 Z " fill="#620302" transform="translate(148,128)"/>
<path d="M0 0 C3.25 0.125 3.25 0.125 7 1 C13.21429493 8.07739145 15.30528871 17.81246769 15.234375 27.03125 C14.87298397 30.06693466 13.55390318 32.41016136 12 35 C10.68 34.67 9.36 34.34 8 34 C8 33.34 8 32.68 8 32 C6.453125 32.495 6.453125 32.495 4.875 33 C1.49995572 33.95843042 -1.4738453 34.32801439 -5 34 C-7.70116608 31.29883392 -7.29904599 29.83410767 -7.3125 26.0625 C-7.1521953 16.38009627 -4.61650764 8.43706569 0 0 Z " fill="#080403" transform="translate(82,73)"/>
<path d="M0 0 C2.1875 1.875 2.1875 1.875 4 4 C5.98111331 4.72085679 7.98095062 5.39346554 10 6 C10.91402121 18.50854952 10.91402121 18.50854952 8.76953125 22.0078125 C3.64049989 26.23768034 -1.81945461 26.45252672 -8.1796875 26.421875 C-11 26 -11 26 -13.5625 23.1875 C-14.036875 22.135625 -14.51125 21.08375 -15 20 C-15.5775 19.54625 -16.155 19.0925 -16.75 18.625 C-18.58170865 16.24377876 -18.40517976 13.90823665 -18.29296875 10.99609375 C-17.67916169 6.81402162 -15.18366617 3.65305514 -12 1 C-7.96448402 -0.34517199 -4.22031274 -0.57759755 0 0 Z " fill="#C60000" transform="translate(64,63)"/>
<path d="M0 0 C0 9.24 0 18.48 0 28 C-10.85714286 26.79365079 -10.85714286 26.79365079 -14 24 C-15.38863137 21.73411947 -16.62102655 19.44562024 -17.7890625 17.05859375 C-18.97347772 14.7028443 -18.97347772 14.7028443 -22 13 C-22 12.34 -22 11.68 -22 11 C-22.66 11 -23.32 11 -24 11 C-23.67 10.01 -23.34 9.02 -23 8 C-20.26953125 6.97265625 -20.26953125 6.97265625 -16.8125 6.0625 C-11.32605777 4.54315596 -11.32605777 4.54315596 -6.4375 1.75 C-4 0 -4 0 0 0 Z " fill="#910303" transform="translate(170,147)"/>
<path d="M0 0 C6.21766961 0.31088348 10.77511539 1.63508462 15.875 5.375 C17.44732534 7.64613661 17.28377368 9.30415006 17 12 C16.67 12.33 16.34 12.66 16 13 C15.855625 14.134375 15.71125 15.26875 15.5625 16.4375 C15 20 15 20 13 22 C9.96557928 22.07698319 6.99163507 21.47773397 4 21 C3.17886719 20.89816406 2.35773438 20.79632813 1.51171875 20.69140625 C-2.77998469 20.01007199 -4.45657422 19.73522312 -7.125 16.125 C-7.9785844 13.07648429 -8.31191508 11.82566325 -7 9 C-5 7 -5 7 -2.6171875 6.8046875 C-1.71226563 6.82789062 -0.80734375 6.85109375 0.125 6.875 C1.49011719 6.90207031 1.49011719 6.90207031 2.8828125 6.9296875 C3.58148438 6.95289062 4.28015625 6.97609375 5 7 C2.03 6.67 -0.94 6.34 -4 6 C-2 2 -2 2 0 0 Z " fill="#BA0000" transform="translate(108,62)"/>
<path d="M0 0 C0 0.33 0 0.66 0 1 C-0.73863281 1.13535156 -1.47726563 1.27070312 -2.23828125 1.41015625 C-9.40761757 2.93147666 -14.70914826 5.29094901 -20.72265625 9.4765625 C-23 11 -23 11 -26 12 C-26.33 12.66 -26.66 13.32 -27 14 C-28.32 14 -29.64 14 -31 14 C-31 14.66 -31 15.32 -31 16 C-35.69621826 20.48388924 -40.87718374 23.08734883 -47 25 C-48.41689195 25.4785001 -49.83354991 25.95769348 -51.25 26.4375 C-53.89888151 27.31274232 -56.55046364 28.17923633 -59.203125 29.04296875 C-60.83507812 29.57857422 -60.83507812 29.57857422 -62.5 30.125 C-63.5209375 30.45757812 -64.541875 30.79015625 -65.59375 31.1328125 C-67.92030875 31.77848043 -67.92030875 31.77848043 -69 33 C-70.27875 33.268125 -71.5575 33.53625 -72.875 33.8125 C-77.58020965 34.80465283 -81.94371316 36.36269589 -86.421875 38.09765625 C-92.77767742 40.3221871 -99.11860366 40.2628485 -105.78710938 40.34179688 C-111.77516448 40.5469653 -115.85502397 42.00987084 -121 45 C-122.06408081 45.4782019 -122.06408081 45.4782019 -123.1496582 45.96606445 C-125.76095025 47.42520442 -126.12464122 49.22803052 -127 52 C-127.495 50.515 -127.495 50.515 -128 49 C-121.82372936 42.46041932 -116.76385987 39.20109593 -107.79077148 38.35351562 C-100.51286915 37.66507534 -93.76557003 36.95224874 -87 34 C-86.505 33.01 -86.505 33.01 -86 32 C-86.66531738 31.91435791 -87.33063477 31.82871582 -88.01611328 31.74047852 C-91.05255732 31.3489607 -94.08877925 30.95574546 -97.125 30.5625 C-98.17171875 30.42779297 -99.2184375 30.29308594 -100.296875 30.15429688 C-105.21379353 29.51634226 -110.11743765 28.87007599 -115 28 C-115 27.34 -115 26.68 -115 26 C-116.32 25.67 -117.64 25.34 -119 25 C-115.98968256 24.06576355 -115.13349732 23.95550089 -112 25 C-110.44009075 25.1539947 -108.87675979 25.27438911 -107.3125 25.375 C-101.55323891 25.84593154 -95.96836177 26.86385648 -90.30786133 27.98388672 C-86.68173316 28.73444402 -86.68173316 28.73444402 -83 29 C-82.505 31.475 -82.505 31.475 -82 34 C-80.95199219 33.6390625 -79.90398437 33.278125 -78.82421875 32.90625 C-77.44539349 32.43726182 -76.06648275 31.9685249 -74.6875 31.5 C-73.99720703 31.26152344 -73.30691406 31.02304688 -72.59570312 30.77734375 C-69.61068511 29.76791737 -67.17341086 29 -64 29 C-64.495 27.515 -64.495 27.515 -65 26 C-64.17822266 25.99613281 -64.17822266 25.99613281 -63.33984375 25.9921875 C-55.97350626 25.63285396 -50.00585697 23.23885372 -43.3203125 20.375 C-40.83840622 19.34719881 -38.61688379 18.52600679 -36 18 C-35.85884766 17.06414062 -35.85884766 17.06414062 -35.71484375 16.109375 C-35 14 -35 14 -31.5625 12.25 C-30.83933594 11.92773438 -30.11617188 11.60546875 -29.37109375 11.2734375 C-26.60040354 9.78538971 -24.4895642 7.94446061 -22.125 5.875 C-15.38196261 0.30241303 -8.502486 -0.3696733 0 0 Z " fill="#3F1E1D" transform="translate(147,126)"/>
<path d="M0 0 C0.66 0.33 1.32 0.66 2 1 C1.3709375 1.226875 0.741875 1.45375 0.09375 1.6875 C-2.20046501 2.83640732 -2.20046501 2.83640732 -2.90625 5.3125 C-3.1021875 6.199375 -3.298125 7.08625 -3.5 8 C-4.09375 10.6875 -4.09375 10.6875 -5 13 C-6.98 13.99 -6.98 13.99 -9 15 C-9.66 17.97 -10.32 20.94 -11 24 C-18.92 24 -26.84 24 -35 24 C-35 22.35 -35 20.7 -35 19 C-33.35 18.34 -31.7 17.68 -30 17 C-30.680625 16.443125 -31.36125 15.88625 -32.0625 15.3125 C-32.701875 14.549375 -33.34125 13.78625 -34 13 C-33.75 10.25 -33.75 10.25 -33 8 C-32.34 8 -31.68 8 -31 8 C-31 7.01 -31 6.02 -31 5 C-33.64 5 -36.28 5 -39 5 C-39.33 4.34 -39.66 3.68 -40 3 C-36.7 3.33 -33.4 3.66 -30 4 C-29.3125 6.1875 -29.3125 6.1875 -29 9 C-30.48046875 11.67578125 -30.48046875 11.67578125 -32 14 C-22.51522603 14.11407804 -17.26270739 11.95592267 -10 6 C-3.49693252 1.16564417 -3.49693252 1.16564417 0 0 Z " fill="#430000" transform="translate(60,176)"/>
<path d="M0 0 C-4.00081581 2.19950064 -8.13246635 3.13186838 -12.5390625 4.21875 C-15.1450191 4.83834918 -15.1450191 4.83834918 -17 7 C-17.15200152 9.90849061 -17.22176813 12.77817682 -17.25 15.6875 C-17.54905326 25.65887377 -17.54905326 25.65887377 -20.875 29.3125 C-21.90865474 30.21756612 -22.94952051 31.11451729 -24 32 C-24.86625 33.4540625 -24.86625 33.4540625 -25.75 34.9375 C-26.36875 35.9584375 -26.36875 35.9584375 -27 37 C-27.66 37 -28.32 37 -29 37 C-29 35.02 -29 33.04 -29 31 C-33.82442184 32.26946514 -33.82442184 32.26946514 -37 36 C-39.75 36.3984375 -39.75 36.3984375 -43 36.375 C-44.60875 36.38660156 -44.60875 36.38660156 -46.25 36.3984375 C-47.61125 36.20121094 -47.61125 36.20121094 -49 36 C-51 33 -51 33 -51 30 C-54.11332248 30.66868314 -54.11332248 30.66868314 -55.1875 33.0625 C-55.455625 33.701875 -55.72375 34.34125 -56 35 C-59.32741108 34.40503246 -61.17090408 33.29522827 -63.6875 31.0625 C-64.28949219 30.53785156 -64.89148438 30.01320312 -65.51171875 29.47265625 C-68.4434985 26.57165634 -68.21102542 23.85910379 -68.4375 19.875 C-68.79590491 14.66656738 -69.52946489 9.99981938 -71 5 C-68.47411298 7.36292656 -67.11179163 8.66462511 -66 12 C-65.34 12.66 -64.68 13.32 -64 14 C-64.0234375 17.2578125 -64.0234375 17.2578125 -64.375 21.125 C-64.54128906 23.04699219 -64.54128906 23.04699219 -64.7109375 25.0078125 C-64.80632812 25.99523437 -64.90171875 26.98265625 -65 28 C-64.37609375 28.29648438 -63.7521875 28.59296875 -63.109375 28.8984375 C-60.96202908 30.01982926 -59.61904165 31.21905418 -58 33 C-57.67 30.69 -57.34 28.38 -57 26 C-51.375 25.75 -51.375 25.75 -48 28 C-47.8125 31.625 -47.8125 31.625 -48 35 C-47.0925 34.690625 -46.185 34.38125 -45.25 34.0625 C-42 33 -42 33 -39.8125 32.6875 C-37.03056451 31.63228309 -36.311771 29.55795345 -35 27 C-32.69 27.33 -30.38 27.66 -28 28 C-27.505 29.98 -27.505 29.98 -27 32 C-23.5012869 25.81592777 -20.80298191 20.23337861 -21 13 C-21.20238281 12.31808594 -21.40476563 11.63617188 -21.61328125 10.93359375 C-22 9 -22 9 -20.0625 5.9375 C-14.59790221 -0.00882542 -7.66998194 -0.47937387 0 0 Z " fill="#4D2B2A" transform="translate(130,107)"/>
<path d="M0 0 C3.86164318 1.8925875 6.30767416 4.38552979 8.3671875 8.16015625 C9.23887865 13.16290545 9.21002058 16.89590663 6.3671875 21.16015625 C6.0371875 17.20015625 5.7071875 13.24015625 5.3671875 9.16015625 C4.2534375 8.89203125 3.1396875 8.62390625 1.9921875 8.34765625 C-1.6328125 7.16015625 -1.6328125 7.16015625 -3.6328125 4.16015625 C-7.76919377 3.3312547 -11.6357315 3.74831845 -15.5078125 5.34765625 C-18.11283892 7.56959055 -19.33764297 8.95631584 -20.6328125 12.16015625 C-20.86914073 15.50985206 -20.80852217 18.8086569 -20.6328125 22.16015625 C-19.6428125 22.49015625 -18.6528125 22.82015625 -17.6328125 23.16015625 C-14.6328125 26.60460069 -14.6328125 26.60460069 -14.6328125 29.16015625 C-12.73614724 29.0724317 -10.84042257 28.96424324 -8.9453125 28.84765625 C-7.88957031 28.78964844 -6.83382812 28.73164062 -5.74609375 28.671875 C-2.38372 28.11921382 -0.47720525 26.96758128 2.3671875 25.16015625 C3.3571875 25.16015625 4.3471875 25.16015625 5.3671875 25.16015625 C3.88671875 27.6328125 3.88671875 27.6328125 1.3671875 30.16015625 C-1.62331344 30.59255426 -3.97975905 30.72837641 -6.9453125 30.59765625 C-7.67943359 30.59185547 -8.41355469 30.58605469 -9.16992188 30.58007812 C-13.97348833 30.47352164 -18.07235608 29.66022712 -22.6328125 28.16015625 C-24.52982165 21.87631344 -25.63527051 15.72263911 -24.6328125 9.16015625 C-22.5078125 6.28515625 -22.5078125 6.28515625 -19.6328125 4.16015625 C-18.7665625 3.23203125 -17.9003125 2.30390625 -17.0078125 1.34765625 C-12.32205475 -2.52265794 -5.48396895 -1.74933728 0 0 Z " fill="#6B0405" transform="translate(67.6328125,59.83984375)"/>
<path d="M0 0 C0 4.95 0 9.9 0 15 C-3 16 -6 17 -9 18 C-9.6875 16.25 -9.6875 16.25 -10 14 C-9.04701223 12.63266972 -8.04625409 11.29735507 -7 10 C-7 9.01 -7 8.02 -7 7 C-9.64 7.33 -12.28 7.66 -15 8 C-15.28875 8.78375 -15.5775 9.5675 -15.875 10.375 C-17 13 -17 13 -19 15 C-19.99 15 -20.98 15 -22 15 C-21.79831891 10.49795751 -21.39266795 6.30026096 -20 2 C-13.86508797 -3.4872022 -7.22305609 -2.40768536 0 0 Z " fill="#CE0E0B" transform="translate(170,93)"/>
<path d="M0 0 C4.06569943 2.1344922 4.99211057 6.14263816 6.5 10.3125 C5.51 10.9725 4.52 11.6325 3.5 12.3125 C3.9086541 18.23798451 4.7929714 21.4821294 8.5 26.3125 C9.16 27.3025 9.82 28.2925 10.5 29.3125 C9.18 29.3125 7.86 29.3125 6.5 29.3125 C3.35654295 26.0959393 1.46907727 23.67334769 0.5 19.3125 C-0.49 18.9825 -1.48 18.6525 -2.5 18.3125 C-4.52532117 14.33686956 -5.5 11.8074298 -5.5 7.3125 C-6.49 7.9725 -7.48 8.6325 -8.5 9.3125 C-8.72107787 12.1010289 -8.78107535 14.65903181 -8.6875 17.4375 C-8.67396484 18.19160156 -8.66042969 18.94570312 -8.64648438 19.72265625 C-8.61109985 21.58624127 -8.55729167 23.44945978 -8.5 25.3125 C-8.83 25.3125 -9.16 25.3125 -9.5 25.3125 C-10.82 18.3825 -12.14 11.4525 -13.5 4.3125 C-11.19 4.3125 -8.88 4.3125 -6.5 4.3125 C-2.36086957 0.2951087 -2.36086957 0.2951087 0 0 Z " fill="#780605" transform="translate(153.5,48.6875)"/>
<path d="M0 0 C2.52238959 1.37584886 4.90025654 2.9102241 7.30859375 4.4765625 C10.92948944 6.5261261 14.56532403 7.38318203 18.58203125 8.36328125 C22.76090748 9.46369615 25.22476371 10.79063139 27.5625 14.4375 C28.036875 15.283125 28.51125 16.12875 29 17 C31.71732455 20.17021197 34.04096649 21.68032216 38 23 C37.375 24.9375 37.375 24.9375 36 27 C32.875 27.75 32.875 27.75 30 28 C30 29.98 30 31.96 30 34 C28.02 34 26.04 34 24 34 C24.375 31.5625 24.375 31.5625 25 29 C25.66 28.67 26.32 28.34 27 28 C27.65213292 25.97536745 27.65213292 25.97536745 28 24 C26.68 23.67 25.36 23.34 24 23 C24.66 22.67 25.32 22.34 26 22 C26.50241322 19.6704053 26.50241322 19.6704053 26 17 C21.22658394 13.22297661 15.86861139 11.06078819 10.25 8.8125 C9.40695313 8.45736328 8.56390625 8.10222656 7.6953125 7.73632812 C2.49776653 5.64220983 -2.18276676 4.51447657 -7.78222656 4.18237305 C-9.95401645 4.00378134 -11.90541668 3.58697322 -14 3 C-9.1134425 0.60658408 -5.54116985 -0.8452632 0 0 Z " fill="#420000" transform="translate(92,166)"/>
<path d="M0 0 C0.99 0 1.98 0 3 0 C3.66 1.65 4.32 3.3 5 5 C8.96 5.33 12.92 5.66 17 6 C17.66 4.68 18.32 3.36 19 2 C20 1 20 1 22.5625 0.9375 C23.7690625 0.9684375 23.7690625 0.9684375 25 1 C25.5 3.625 25.5 3.625 25 7 C20.58851496 11.47318413 15.95576268 14.12035981 9.625 14.25 C5.18624246 14.21385377 2.20729544 13.20729544 -1 10 C-1.0979057 8.50261876 -1.12974864 7.00057108 -1.125 5.5 C-1.12757812 4.6853125 -1.13015625 3.870625 -1.1328125 3.03125 C-1 1 -1 1 0 0 Z " fill="#530A09" transform="translate(76,137)"/>
<path d="M0 0 C2.8125 0.0625 2.8125 0.0625 6 1 C8.24187957 4.9606539 9 7.43432227 9 12 C10.32 12.33 11.64 12.66 13 13 C13 16.3 13 19.6 13 23 C9.52826875 22.38115308 6.37532157 21.44324379 3.0625 20.25 C-0.60967316 19.13190549 -1.73917735 18.92678662 -5.5625 20 C-8.17627389 21.77813821 -8.17627389 21.77813821 -8.8125 24.5 C-8.874375 25.325 -8.93625 26.15 -9 27 C-9.33 27.99 -9.66 28.98 -10 30 C-11.52491998 26.95016004 -11.23562548 24.3576631 -11 21 C-9.04626993 18.01799094 -6.35153058 17.01325343 -3 16 C0.3125 15.875 0.3125 15.875 3 16 C3.33 16.66 3.66 17.32 4 18 C4.66 17.67 5.32 17.34 6 17 C5.21625 16.13375 4.4325 15.2675 3.625 14.375 C1.16566018 11.40562664 -0.18622587 8.82473843 -1 5 C-0.625 2.125 -0.625 2.125 0 0 Z " fill="#9A0705" transform="translate(157,60)"/>
<path d="M0 0 C6.9449014 5.43514022 6.9449014 5.43514022 8 9 C7.13671875 12.05859375 7.13671875 12.05859375 5.6875 15.4375 C2.97928296 21.84076385 1.85925487 26.79065229 1.875 33.75 C1.87242188 34.89984375 1.86984375 36.0496875 1.8671875 37.234375 C1.68499836 39.9091233 1.68499836 39.9091233 3 41 C6 41.16666667 6 41.16666667 9 41 C9.33 40.67 9.66 40.34 10 40 C11.99958364 39.95919217 14.00045254 39.95745644 16 40 C16 40.33 16 40.66 16 41 C14.27708363 41.5612302 12.54626261 42.09822933 10.8125 42.625 C9.84957031 42.92664063 8.88664062 43.22828125 7.89453125 43.5390625 C4.56284172 44.06961495 2.96704544 43.50793169 0 42 C-0.02578125 41.22914062 -0.0515625 40.45828125 -0.078125 39.6640625 C-0.13484375 38.66117188 -0.1915625 37.65828125 -0.25 36.625 C-0.29640625 35.62726563 -0.3428125 34.62953125 -0.390625 33.6015625 C-0.59171875 32.74304688 -0.7928125 31.88453125 -1 31 C-2.92744462 29.72354306 -2.92744462 29.72354306 -5 29 C-5.33 28.34 -5.66 27.68 -6 27 C-8.79192205 26.94619422 -11.5828141 26.90642331 -14.375 26.875 C-15.1690625 26.85824219 -15.963125 26.84148437 -16.78125 26.82421875 C-18.85492015 26.80664527 -20.92883241 26.89664832 -23 27 C-23.66 27.66 -24.32 28.32 -25 29 C-25.66 27.02 -26.32 25.04 -27 23 C-26.35675781 23.15339844 -25.71351562 23.30679688 -25.05078125 23.46484375 C-21.10232463 24.15746674 -17.1868113 24.35800881 -13.1875 24.5625 C-12.39923828 24.60568359 -11.61097656 24.64886719 -10.79882812 24.69335938 C-8.86605785 24.79878321 -6.93304974 24.89983094 -5 25 C-4.71382812 24.41476563 -4.42765625 23.82953125 -4.1328125 23.2265625 C-3.44049147 21.86579359 -2.71351636 20.52113319 -1.9296875 19.2109375 C1.16765364 13.8192696 1.66685736 9.15476546 1 3 C0.67 2.01 0.34 1.02 0 0 Z " fill="#555050" transform="translate(74,65)"/>
<path d="M0 0 C0 0.33 0 0.66 0 1 C-0.73863281 1.13535156 -1.47726563 1.27070312 -2.23828125 1.41015625 C-9.40761757 2.93147666 -14.70914826 5.29094901 -20.72265625 9.4765625 C-23 11 -23 11 -26 12 C-26.33 12.66 -26.66 13.32 -27 14 C-28.32 14 -29.64 14 -31 14 C-31 14.66 -31 15.32 -31 16 C-35.69621826 20.48388924 -40.87718374 23.08734883 -47 25 C-48.41689195 25.4785001 -49.83354991 25.95769348 -51.25 26.4375 C-53.89888151 27.31274232 -56.55046364 28.17923633 -59.203125 29.04296875 C-60.83507812 29.57857422 -60.83507812 29.57857422 -62.5 30.125 C-63.5209375 30.45757812 -64.541875 30.79015625 -65.59375 31.1328125 C-67.92030875 31.77848043 -67.92030875 31.77848043 -69 33 C-70.42828582 33.37083283 -71.86821123 33.69743214 -73.3125 34 C-76.22400191 34.61598718 -79.11701446 35.26111126 -82 36 C-82 35.34 -82 34.68 -82 34 C-79.56427941 33.16112944 -77.12666783 32.32873471 -74.6875 31.5 C-73.99720703 31.26152344 -73.30691406 31.02304688 -72.59570312 30.77734375 C-69.61068511 29.76791737 -67.17341086 29 -64 29 C-64.33 28.01 -64.66 27.02 -65 26 C-64.17822266 25.99613281 -64.17822266 25.99613281 -63.33984375 25.9921875 C-55.97350626 25.63285396 -50.00585697 23.23885372 -43.3203125 20.375 C-40.83840622 19.34719881 -38.61688379 18.52600679 -36 18 C-35.85884766 17.06414062 -35.85884766 17.06414062 -35.71484375 16.109375 C-35 14 -35 14 -31.5625 12.25 C-30.83933594 11.92773438 -30.11617187 11.60546875 -29.37109375 11.2734375 C-26.60040354 9.78538971 -24.4895642 7.94446061 -22.125 5.875 C-15.38196261 0.30241303 -8.502486 -0.3696733 0 0 Z " fill="#3C393A" transform="translate(147,126)"/>
<path d="M0 0 C2.1875 1.875 2.1875 1.875 4 4 C5.98111331 4.72085679 7.98095062 5.39346554 10 6 C10.91402121 18.50854952 10.91402121 18.50854952 8.76953125 22.0078125 C4.36677108 25.63873076 0.30425984 26.12155118 -5.1875 26.0625 C-6.81751953 26.04896484 -6.81751953 26.04896484 -8.48046875 26.03515625 C-9.31191406 26.02355469 -10.14335938 26.01195313 -11 26 C-11 25.67 -11 25.34 -11 25 C-9.2984375 24.87625 -9.2984375 24.87625 -7.5625 24.75 C-2.5929304 24.15436286 1.5546652 22.21237727 6 20 C6.64235925 15.56593682 7.1122059 11.66089414 4.53515625 7.8125 C-0.22193482 3.29090849 -4.4967624 1.89462346 -11 2 C-11.29777344 2.62261719 -11.59554687 3.24523437 -11.90234375 3.88671875 C-13 6 -13 6 -14.5625 7.8125 C-16.50945189 10.77525287 -16.66490689 13.5150317 -17 17 C-17.33 17 -17.66 17 -18 17 C-18.32839908 10.54148473 -17.80765641 7.27559915 -13.5 2.25 C-9.78752784 -0.8437268 -4.56926154 -0.62535514 0 0 Z " fill="#A00000" transform="translate(64,63)"/>
<path d="M0 0 C0 5.28 0 10.56 0 16 C-3.85006136 15.22998773 -6.00776573 14.6738858 -9.3125 12.9375 C-10.00988281 12.57527344 -10.70726562 12.21304688 -11.42578125 11.83984375 C-11.94527344 11.56269531 -12.46476563 11.28554687 -13 11 C-13.36290323 6.52419355 -13.36290323 6.52419355 -11.875 4.375 C-7.91833149 1.47344309 -4.94636358 0 0 0 Z " fill="#B10604" transform="translate(170,152)"/>
<path d="M0 0 C0.66 0.33 1.32 0.66 2 1 C1.38545304 4.99455527 -0.70646737 7.74466336 -3 11 C-0.69 11.33 1.62 11.66 4 12 C4.495 13.98 4.495 13.98 5 16 C3.7934375 16.8971875 3.7934375 16.8971875 2.5625 17.8125 C-0.22327984 19.80947276 -0.22327984 19.80947276 -1 23 C-6.69777786 26.17908361 -12.1954555 26.66574682 -18.625 27.125 C-20.47153396 27.27118394 -22.31789663 27.4195511 -24.1640625 27.5703125 C-25.37763428 27.65949951 -25.37763428 27.65949951 -26.61572266 27.75048828 C-29.12165946 28.01273151 -31.53799457 28.46996595 -34 29 C-33 27 -33 27 -30.8203125 25.8984375 C-27.72753172 24.91320263 -25.11451549 24.72847347 -21.875 24.625 C-15.33344237 24.22358624 -10.00493435 22.51077395 -4 20 C-3.01 19.67 -2.02 19.34 -1 19 C-1 18.34 -1 17.68 -1 17 C0.32 16.67 1.64 16.34 3 16 C3 15.01 3 14.02 3 13 C0.36 13 -2.28 13 -5 13 C-5.625 10.6875 -5.625 10.6875 -6 8 C-4 5 -4 5 -1 4 C-0.26676204 1.98491642 -0.26676204 1.98491642 0 0 Z " fill="#511E1D" transform="translate(148,128)"/>
<path d="M0 0 C19.34142942 -0.68803504 19.34142942 -0.68803504 27 5.375 C29.04262581 8.05594638 29.7151876 9.67718869 30 13 C26.375 16 26.375 16 23 16 C23.20625 17.093125 23.4125 18.18625 23.625 19.3125 C24 23 24 23 22 26 C17.65413172 26.39507893 15.67996503 26.45331002 12 24 C14.97 24 17.94 24 21 24 C20.4121875 21.8653125 20.4121875 21.8653125 19.8125 19.6875 C19.14453125 17.26171875 19.14453125 17.26171875 19 15 C20.9184945 12.3141077 21.8759207 12.0267622 25.1875 11.3125 C26.115625 11.209375 27.04375 11.10625 28 11 C26.27773504 7.75150023 26.27773504 7.75150023 23 7 C23 6.34 23 5.68 23 5 C20.9620493 4.46481117 18.91940991 3.94745907 16.875 3.4375 C15.73804688 3.14746094 14.60109375 2.85742188 13.4296875 2.55859375 C9.91993683 1.9869601 7.45572737 2.32474293 4 3 C1.625 2.0625 1.625 2.0625 0 1 C0 0.67 0 0.34 0 0 Z " fill="#3D2B2C" transform="translate(122,166)"/>
<path d="M0 0 C9.10036408 -0.64187521 15.25528445 0.12617038 23 5 C23.68578125 5.41894531 24.3715625 5.83789062 25.078125 6.26953125 C26.38907986 7.08242649 27.69396113 7.90520886 28.9921875 8.73828125 C34.08665277 11.93966701 39.3147926 14.98266834 45 17 C44.34 15.35 43.68 13.7 43 12 C44.9375 12.6875 44.9375 12.6875 47 14 C47.75 16.625 47.75 16.625 48 19 C46.37536158 19.05395478 44.75021459 19.09277195 43.125 19.125 C41.76761719 19.15980469 41.76761719 19.15980469 40.3828125 19.1953125 C38 19 38 19 36 17 C34.948125 16.608125 33.89625 16.21625 32.8125 15.8125 C29.66962236 14.54363636 27.80615868 12.9727435 25.5 10.5 C22.32344122 7.12446215 19.43047911 5.53052915 15 4 C14.030625 3.62875 13.06125 3.2575 12.0625 2.875 C8.36034543 1.81724155 4.82845541 1.39604711 1 1 C1 2.65 1 4.3 1 6 C-0.0625 4.125 -0.0625 4.125 -1 2 C-0.67 1.34 -0.34 0.68 0 0 Z " fill="#471514" transform="translate(23,126)"/>
<path d="M0 0 C0.99 0.33 1.98 0.66 3 1 C3 1.66 3 2.32 3 3 C5.475 3.99 5.475 3.99 8 5 C8 6.32 8 7.64 8 9 C3.545 9.495 3.545 9.495 -1 10 C-1.33 11.32 -1.66 12.64 -2 14 C-3.98 14 -5.96 14 -8 14 C-7.91291331 12.54054712 -7.80473093 11.08234132 -7.6875 9.625 C-7.62949219 8.81289062 -7.57148437 8.00078125 -7.51171875 7.1640625 C-7 5 -7 5 -4 3 C-3.01 3 -2.02 3 -1 3 C-0.67 2.01 -0.34 1.02 0 0 Z " fill="#730000" transform="translate(57,186)"/>
<path d="M0 0 C1.07991211 0.07347656 1.07991211 0.07347656 2.18164062 0.1484375 C5.83885946 0.44726318 7.83386886 0.80591257 10.9375 2.875 C10.9375 3.535 10.9375 4.195 10.9375 4.875 C11.5975 4.875 12.2575 4.875 12.9375 4.875 C13.5975 6.855 14.2575 8.835 14.9375 10.875 C14.46699219 10.52566406 13.99648437 10.17632812 13.51171875 9.81640625 C12.88910156 9.36136719 12.26648438 8.90632813 11.625 8.4375 C11.01011719 7.98503906 10.39523438 7.53257813 9.76171875 7.06640625 C6.12177487 4.68914097 2.73988985 4.65393917 -1.5 4.5625 C-2.63308594 4.52511719 -3.76617187 4.48773438 -4.93359375 4.44921875 C-8.69448336 4.96100023 -9.71252624 5.98355763 -12.0625 8.875 C-12.619375 9.431875 -13.17625 9.98875 -13.75 10.5625 C-15.7665763 14.11551539 -15.81305633 17.84949522 -16.0625 21.875 C-16.7225 21.545 -17.3825 21.215 -18.0625 20.875 C-18.76781064 14.40965249 -17.51821303 11.22191022 -13.765625 5.953125 C-13.20359375 5.26734375 -12.6415625 4.5815625 -12.0625 3.875 C-11.22138672 2.74964844 -11.22138672 2.74964844 -10.36328125 1.6015625 C-7.0144544 -0.91147904 -3.96358239 -0.39956906 0 0 Z " fill="#432323" transform="translate(112.0625,57.125)"/>
<path d="M0 0 C0 1.65 0 3.3 0 5 C-0.65226562 5.25394531 -1.30453125 5.50789062 -1.9765625 5.76953125 C-4.65961431 6.8261313 -7.33041109 7.90988471 -10 9 C-11.7634375 9.7115625 -11.7634375 9.7115625 -13.5625 10.4375 C-16.24718366 11.79537026 -16.24718366 11.79537026 -16.875 14.6875 C-16.91625 15.450625 -16.9575 16.21375 -17 17 C-18.7074998 15.71937515 -20.37373596 14.38232443 -22 13 C-22 12.34 -22 11.68 -22 11 C-22.66 11 -23.32 11 -24 11 C-23.67 10.01 -23.34 9.02 -23 8 C-20.26953125 6.97265625 -20.26953125 6.97265625 -16.8125 6.0625 C-11.32605777 4.54315596 -11.32605777 4.54315596 -6.4375 1.75 C-4 0 -4 0 0 0 Z " fill="#790303" transform="translate(170,147)"/>
<path d="M0 0 C0.33 0 0.66 0 1 0 C1.14565676 4.81558298 1.28787843 9.63125238 1.42724609 14.44702148 C1.47486034 16.07693049 1.52332918 17.70681481 1.57275391 19.33666992 C1.91237671 30.56154999 2.064752 41.77002478 2 53 C1.01 53.495 1.01 53.495 0 54 C-1.12355916 44.04152917 -1.15381318 34.12091021 -1.13037109 24.11474609 C-1.1249431 21.34597469 -1.13038067 18.57736066 -1.13671875 15.80859375 C-1.13605909 14.04687464 -1.13478025 12.28515563 -1.1328125 10.5234375 C-1.13483673 9.69645355 -1.13686096 8.8694696 -1.13894653 8.01742554 C-1.11500409 2.23000817 -1.11500409 2.23000817 0 0 Z " fill="#745656" transform="translate(6,14)"/>
<path d="M0 0 C2.52238959 1.37584886 4.90025654 2.9102241 7.30859375 4.4765625 C10.92619057 6.52425882 14.5539978 7.38446123 18.5703125 8.3515625 C21.43080035 9.11497244 23.67560322 10.1565129 26 12 C26 12.66 26 13.32 26 14 C19.40673063 13.31050778 13.70493167 10.51087226 7.6953125 7.8828125 C2.47835837 5.69711612 -2.12442339 4.4992163 -7.78222656 4.17578125 C-9.95647712 4.00344963 -11.90391179 3.58829173 -14 3 C-9.1134425 0.60658408 -5.54116985 -0.8452632 0 0 Z " fill="#3C2625" transform="translate(92,166)"/>
<path d="M0 0 C2.52588702 2.36292656 3.88820837 3.66462511 5 7 C5.66 7.66 6.32 8.32 7 9 C6.9765625 12.2578125 6.9765625 12.2578125 6.625 16.125 C6.45871094 18.04699219 6.45871094 18.04699219 6.2890625 20.0078125 C6.19367188 20.99523437 6.09828125 21.98265625 6 23 C6.62390625 23.29648438 7.2478125 23.59296875 7.890625 23.8984375 C10.03797092 25.01982926 11.38095835 26.21905418 13 28 C13.33 25.69 13.66 23.38 14 21 C19.625 20.75 19.625 20.75 23 23 C23.1875 25.625 23.1875 25.625 23 28 C22.608125 27.34 22.21625 26.68 21.8125 26 C20.14583333 23.70833333 20.14583333 23.70833333 17.3125 23.75 C16.549375 23.8325 15.78625 23.915 15 24 C15 25.98 15 27.96 15 30 C11.67258892 29.40503246 9.82909592 28.29522827 7.3125 26.0625 C6.71050781 25.53785156 6.10851562 25.01320312 5.48828125 24.47265625 C2.5565015 21.57165634 2.78897458 18.85910379 2.5625 14.875 C2.20409509 9.66656738 1.47053511 4.99981938 0 0 Z " fill="#524242" transform="translate(59,112)"/>
<path d="M0 0 C0.33 0 0.66 0 1 0 C1.2046785 3.2073796 1.32805321 6.41307177 1.4375 9.625 C1.49615234 10.52863281 1.55480469 11.43226562 1.61523438 12.36328125 C1.78396426 18.96785122 1.78396426 18.96785122 -0.48608398 21.95654297 C-3.74939026 24.83257554 -6.52614291 26.72885715 -11 27 C-10.38125 26.05125 -9.7625 25.1025 -9.125 24.125 C-6.54457343 19.66873142 -5.77071761 15.04008752 -5 10 C-3.68 9.67 -2.36 9.34 -1 9 C-0.67 6.03 -0.34 3.06 0 0 Z " fill="#524544" transform="translate(142,80)"/>
<path d="M0 0 C24.09 0 48.18 0 73 0 C73 0.33 73 0.66 73 1 C61.44918822 1.74009778 49.94320701 2.04074202 38.37109375 1.9609375 C37.34518127 1.95503601 36.3192688 1.94913452 35.26226807 1.9430542 C30.02317758 1.91094256 24.78505532 1.86078474 19.54638672 1.78710938 C17.57910596 1.77156784 15.61182081 1.75657099 13.64453125 1.7421875 C12.73182968 1.72352631 11.81912811 1.70486511 10.87876892 1.68563843 C5.90489287 1.62548628 5.90489287 1.62548628 1.3972168 3.51611328 C0.93613525 4.0057959 0.47505371 4.49547852 0 5 C0 3.35 0 1.7 0 0 Z " fill="#776060" transform="translate(7,6)"/>
<path d="M0 0 C0 3.96 0 7.92 0 12 C-2.97 12 -5.94 12 -9 12 C-9.19406478 10.35492782 -9.38007935 8.70890406 -9.5625 7.0625 C-9.66691406 6.14597656 -9.77132812 5.22945312 -9.87890625 4.28515625 C-9.91886719 3.53105469 -9.95882812 2.77695313 -10 2 C-8.51264857 0.51264857 -7.06226344 0.66950464 -5 0.4375 C-4.278125 0.35371094 -3.55625 0.26992187 -2.8125 0.18359375 C-1 0 -1 0 0 0 Z " fill="#590201" transform="translate(170,188)"/>
<path d="M0 0 C7.7680254 -0.43155697 14.54100714 0.33487435 20.859375 5.203125 C23.31243953 7.40672534 25.68595077 9.6514862 28 12 C24.45875819 12 24.23186262 11.54939558 21.8125 9.1875 C15.92880552 3.94656206 9.6867167 2.68631399 2 2 C2.495 2.886875 2.99 3.77375 3.5 4.6875 C4.94378674 7.87586238 5.30159922 9.58187546 5 13 C2.69 13.33 0.38 13.66 -2 14 C-1.42647107 17.87132028 0.48704352 20.08172796 3 23 C-0.35915158 21.56036361 -2.71624938 19.87583411 -5 17 C-5.125 14.875 -5.125 14.875 -4 13 C-1.25822503 11.83328724 1.00567607 11 4 11 C3.34 10.484375 2.68 9.96875 2 9.4375 C-0.65637543 6.20004245 -0.31342132 4.07447719 0 0 Z " fill="#412221" transform="translate(24,127)"/>
<path d="M0 0 C4.70999885 1.68214245 9.42655071 4.45616561 12.12109375 8.8125 C13.1431494 11.35628294 13.30011931 13.32636756 13.3125 16.0625 C13.33763672 17.34833984 13.33763672 17.34833984 13.36328125 18.66015625 C12.93462864 21.42104781 12.14005895 22.27778897 10 24 C9.98582031 22.96359375 9.97164062 21.9271875 9.95703125 20.859375 C9.91011907 19.48953943 9.86187173 18.11974913 9.8125 16.75 C9.80669922 16.06808594 9.80089844 15.38617188 9.79492188 14.68359375 C9.63415646 11.0038521 9.30323489 9.3162381 6.72265625 6.625 C1.02156662 3.22234105 -5.30918386 0.95046021 -12 2 C-14.33630748 4.39859044 -14.33630748 4.39859044 -16 7 C-16.66 7 -17.32 7 -18 7 C-14.97243961 -1.8497919 -8.19783474 -0.65703978 0 0 Z " fill="#700404" transform="translate(117,61)"/>
<path d="M0 0 C0 3.66666667 0 7.33333333 0 11 C0.99 11.33 1.98 11.66 3 12 C3.33 12.66 3.66 13.32 4 14 C5.99117408 14.69258229 7.9921136 15.35747635 10 16 C10.99 16.66 11.98 17.32 13 18 C15.83784221 18.28034392 15.83784221 18.28034392 18.9375 18.1875 C19.97777344 18.18105469 21.01804687 18.17460938 22.08984375 18.16796875 C24.56066692 18.02535748 26.64177041 17.71031012 29 17 C27.5234375 18.96875 27.5234375 18.96875 25 21 C22.05167541 21.4017757 19.56110896 21.56053833 16.625 21.5 C15.51125 21.52320313 15.51125 21.52320313 14.375 21.546875 C7.9310111 21.50133444 4.41213749 19.15822828 -0.375 14.875 C-2.71362138 10.73743909 -2.70988495 6.66377901 -2 2 C-1.34 1.34 -0.68 0.68 0 0 Z " fill="#700606" transform="translate(98,68)"/>
<path d="M0 0 C-2.75770059 1.83846706 -4.32316518 2.45223936 -7.4375 3.25 C-22.00848926 7.43755703 -32.65531722 15.38993958 -42 27 C-42.33 26.01 -42.66 25.02 -43 24 C-32.938007 11.40119097 -17.21741424 -1.35926955 0 0 Z " fill="#8B8282" transform="translate(80,16)"/>
<path d="M0 0 C2.3359375 1.02734375 2.3359375 1.02734375 4 2 C3.21496094 2.03738281 2.42992188 2.07476562 1.62109375 2.11328125 C-5.66589421 2.56927682 -11.27006397 3.09669844 -17.16796875 7.6875 C-19.63259847 10.79850383 -19.4397853 12.76799062 -19.3125 16.6875 C-19.28800781 17.84636719 -19.26351562 19.00523438 -19.23828125 20.19921875 C-19.31128704 22.90358622 -19.31128704 22.90358622 -18 24 C-17.95936168 25.66617115 -17.957279 27.33388095 -18 29 C-18.66 29 -19.32 29 -20 29 C-21.89700915 22.71615719 -23.00245801 16.56248286 -22 10 C-19.875 7.125 -19.875 7.125 -17 5 C-16.13375 4.071875 -15.2675 3.14375 -14.375 2.1875 C-10.26264126 -1.21804709 -5.04570188 -0.72408109 0 0 Z " fill="#462121" transform="translate(65,59)"/>
<path d="M0 0 C1.32 0 2.64 0 4 0 C6.36574234 3.5486135 6.10865265 4.5764525 5.625 8.6875 C5.51414062 9.68136719 5.40328125 10.67523438 5.2890625 11.69921875 C5.19367188 12.45847656 5.09828125 13.21773437 5 14 C3.02 14 1.04 14 -1 14 C-0.67 9.38 -0.34 4.76 0 0 Z " fill="#900000" transform="translate(70,186)"/>
<path d="M0 0 C0 0.33 0 0.66 0 1 C-0.73863281 1.13535156 -1.47726563 1.27070312 -2.23828125 1.41015625 C-9.40761757 2.93147666 -14.70914826 5.29094901 -20.72265625 9.4765625 C-23 11 -23 11 -26 12 C-26.33 12.66 -26.66 13.32 -27 14 C-29.06640625 14.6328125 -29.06640625 14.6328125 -31.5625 15.125 C-32.38878906 15.29257813 -33.21507813 15.46015625 -34.06640625 15.6328125 C-34.70449219 15.75398437 -35.34257813 15.87515625 -36 16 C-34.5516771 13.1033542 -32.18956662 12.67009017 -29.37109375 11.34375 C-26.64291596 9.79763277 -24.48676877 7.93455191 -22.125 5.875 C-15.38196261 0.30241303 -8.502486 -0.3696733 0 0 Z " fill="#4B1F1E" transform="translate(147,126)"/>
<path d="M0 0 C-1 3 -1 3 -2.58984375 4.13671875 C-6.45694835 5.5218567 -10.52445866 5.67767272 -14.59960938 5.94726562 C-18.07023032 6.29536167 -19.63664053 6.5570618 -21.890625 9.3046875 C-22.8575924 11.65400972 -23.64181037 13.8359086 -24.1875 16.3125 C-24.455625 17.529375 -24.72375 18.74625 -25 20 C-25.33 20 -25.66 20 -26 20 C-26.7740227 10.02370744 -26.7740227 10.02370744 -24.0625 6.4375 C-20.8480797 4.92869047 -17.95894997 4.15101669 -14.484375 3.50390625 C-10.93125103 2.78322544 -7.52030893 1.67778154 -4.06640625 0.5859375 C-2 0 -2 0 0 0 Z " fill="#601210" transform="translate(138,105)"/>
<path d="M0 0 C1.51400391 0.01740234 1.51400391 0.01740234 3.05859375 0.03515625 C4.07050781 0.04417969 5.08242187 0.05320313 6.125 0.0625 C7.29869141 0.07990234 7.29869141 0.07990234 8.49609375 0.09765625 C9.15609375 1.41765625 9.81609375 2.73765625 10.49609375 4.09765625 C9.49609375 5.09765625 9.49609375 5.09765625 6.3359375 5.1953125 C4.40427734 5.17791016 4.40427734 5.17791016 2.43359375 5.16015625 C1.14324219 5.15113281 -0.14710938 5.14210937 -1.4765625 5.1328125 C-2.47558594 5.12121094 -3.47460938 5.10960937 -4.50390625 5.09765625 C-3.38261259 0.13192717 -3.38261259 0.13192717 0 0 Z " fill="#740300" transform="translate(154.50390625,179.90234375)"/>
<path d="M0 0 C-3.9464825 2.16870383 -7.99130225 3.07483227 -12.34375 4.12109375 C-15.24052752 5.07958631 -16.94259704 5.72909296 -19 8 C-19.33431241 11.23082498 -19.33431241 11.23082498 -19 14.8125 C-18.74161 22.62072275 -18.74161 22.62072275 -21 25.875 C-21.66 26.57625 -22.32 27.2775 -23 28 C-23 25 -23 25 -22 22.1875 C-20.78236545 18.30628987 -20.24984655 14.84653157 -21.8125 11 C-22 9 -22 9 -20.0625 5.9375 C-14.59790221 -0.00882542 -7.66998194 -0.47937387 0 0 Z " fill="#574848" transform="translate(130,107)"/>
<path d="M0 0 C0.33 0 0.66 0 1 0 C1.33 2.97 1.66 5.94 2 9 C2.99 9.33 3.98 9.66 5 10 C8 13.44444444 8 13.44444444 8 16 C9.89666526 15.91227545 11.79238993 15.80408699 13.6875 15.6875 C15.27111328 15.60048828 15.27111328 15.60048828 16.88671875 15.51171875 C20.2490925 14.95905757 22.15560725 13.80742503 25 12 C25.99 12 26.98 12 28 12 C26.52734375 14.47265625 26.52734375 14.47265625 24 17 C20.96922872 17.43038758 18.56750832 17.56837568 15.5625 17.4375 C14.81162109 17.43169922 14.06074219 17.42589844 13.28710938 17.41992188 C9.16376732 17.32925912 5.68457061 17.03917076 2 15 C-0.47078231 10.17609169 -0.21133147 5.28328679 0 0 Z " fill="#720A09" transform="translate(45,73)"/>
<path d="M0 0 C0.33 0 0.66 0 1 0 C1 3.96 1 7.92 1 12 C2.98 12 4.96 12 7 12 C7 11.34 7 10.68 7 10 C9.25 7.375 9.25 7.375 12 5 C13.32 5 14.64 5 16 5 C15.67 7.64 15.34 10.28 15 13 C12 13 12 13 10 12 C9.01 12.495 9.01 12.495 8 13 C5.30986661 13.18704404 2.70313823 13.08581391 0 13 C-1 12 -1 12 -1.125 8.75 C-1.02213207 5.66396211 -0.72382033 2.98575886 0 0 Z " fill="#A40C0B" transform="translate(146,97)"/>
<path d="M0 0 C0.66 0.33 1.32 0.66 2 1 C1.41476563 1.2475 0.82953125 1.495 0.2265625 1.75 C-2.32788889 3.18407798 -3.75320419 4.75714334 -5.625 7 C-10.61434651 12.9262107 -10.61434651 12.9262107 -13.1640625 13.4140625 C-13.97617187 13.48367187 -14.78828125 13.55328125 -15.625 13.625 C-16.44226562 13.69976562 -17.25953125 13.77453125 -18.1015625 13.8515625 C-18.72804687 13.90054688 -19.35453125 13.94953125 -20 14 C-18.33333333 12.66666667 -16.66666667 11.33333333 -15 10 C-14.21625 9.360625 -13.4325 8.72125 -12.625 8.0625 C-4.10526316 1.36842105 -4.10526316 1.36842105 0 0 Z " fill="#411817" transform="translate(60,176)"/>
<path d="M0 0 C-3.625 3 -3.625 3 -7 3 C-6.79375 4.093125 -6.5875 5.18625 -6.375 6.3125 C-6 10 -6 10 -8 13 C-12.34586828 13.39507893 -14.32003497 13.45331002 -18 11 C-15.03 11 -12.06 11 -9 11 C-9.66 8.03 -10.32 5.06 -11 2 C-3.57142857 -1.57142857 -3.57142857 -1.57142857 0 0 Z " fill="#461512" transform="translate(152,179)"/>
<path d="M0 0 C0 2.31 0 4.62 0 7 C-2.97 7 -5.94 7 -9 7 C-9 5.35 -9 3.7 -9 2 C-5.62902617 0.50178941 -3.79557881 0 0 0 Z " fill="#310100" transform="translate(34,193)"/>
<path d="M0 0 C3.3 0.33 6.6 0.66 10 1 C10.6875 3.1875 10.6875 3.1875 11 6 C9.515 8.475 9.515 8.475 8 11 C11.96 11 15.92 11 20 11 C19.67 11.66 19.34 12.32 19 13 C17.20906809 13.08086147 15.41710372 13.13912702 13.625 13.1875 C12.12839844 13.23970703 12.12839844 13.23970703 10.6015625 13.29296875 C9.74304687 13.19628906 8.88453125 13.09960938 8 13 C6 10 6 10 6.375 7.3125 C6.58125 6.549375 6.7875 5.78625 7 5 C7.66 5 8.32 5 9 5 C9 4.01 9 3.02 9 2 C6.36 2 3.72 2 1 2 C0.67 1.34 0.34 0.68 0 0 Z " fill="#341E1D" transform="translate(20,179)"/>
<path d="M0 0 C0.33 0 0.66 0 1 0 C1.91859052 16.07533414 1.91859052 16.07533414 -0.23046875 20.578125 C-1.72823953 22.22012555 -3.28739749 23.58962146 -5 25 C-5.86625 26.4540625 -5.86625 26.4540625 -6.75 27.9375 C-7.36875 28.9584375 -7.36875 28.9584375 -8 30 C-8.66 30 -9.32 30 -10 30 C-9.67 28.68 -9.34 27.36 -9 26 C-8.34 26.33 -7.68 26.66 -7 27 C-6.896875 26.05125 -6.79375 25.1025 -6.6875 24.125 C-6 21 -6 21 -3 19 C-0.48671385 15.44158496 -0.82762422 12.05370512 -0.9375 7.8125 C-0.99127623 5.54220791 -1.02056384 3.27083579 -1 1 C-0.67 0.67 -0.34 0.34 0 0 Z " fill="#4C2524" transform="translate(111,114)"/>
<path d="M0 0 C0.99 0.33 1.98 0.66 3 1 C3 1.66 3 2.32 3 3 C9.5811496 5.24977726 9.5811496 5.24977726 16.4375 6 C19 6 19 6 20.66015625 7.5 C21.10230469 7.995 21.54445313 8.49 22 9 C13.88554348 9.39618504 7.99597499 9.38120961 1.5625 3.9375 C0 2 0 2 0 0 Z " fill="#564A4B" transform="translate(35,102)"/>
<path d="M0 0 C0.66 0.33 1.32 0.66 2 1 C2.91402121 13.50854952 2.91402121 13.50854952 0.76953125 17.0078125 C-3.63322892 20.63873076 -7.69574016 21.12155118 -13.1875 21.0625 C-14.81751953 21.04896484 -14.81751953 21.04896484 -16.48046875 21.03515625 C-17.31191406 21.02355469 -18.14335938 21.01195313 -19 21 C-19 20.67 -19 20.34 -19 20 C-17.2984375 19.87625 -17.2984375 19.87625 -15.5625 19.75 C-9.85770371 19.05850954 -5.08042759 16.54021379 0 14 C0 9.38 0 4.76 0 0 Z " fill="#860101" transform="translate(72,68)"/>
<path d="M0 0 C0.66 0.33 1.32 0.66 2 1 C2.4140625 3.06640625 2.4140625 3.06640625 2.625 5.5625 C2.69976562 6.38878906 2.77453125 7.21507812 2.8515625 8.06640625 C2.90054688 8.70449219 2.94953125 9.34257812 3 10 C0.87527424 10.05386629 -1.24983652 10.09273071 -3.375 10.125 C-5.15003906 10.15980469 -5.15003906 10.15980469 -6.9609375 10.1953125 C-10 10 -10 10 -12 8 C-9.03 8 -6.06 8 -3 8 C-1.78918149 4.89459074 -1.78918149 4.89459074 -2 1 C-1.34 0.67 -0.68 0.34 0 0 Z " fill="#443B3C" transform="translate(140,180)"/>
<path d="M0 0 C9.18921886 -0.5084199 15.33574747 0.50771987 22.4375 6.5625 C25.82046679 9.64093357 25.82046679 9.64093357 27 12 C24.25187754 10.83733281 22.51605498 9.57104873 20.25 7.5625 C14.63046397 2.77601077 8.17661898 1.64076955 1 1 C1.33 2.65 1.66 4.3 2 6 C1.34 5.67 0.68 5.34 0 5 C0 3.35 0 1.7 0 0 Z " fill="#3F3536" transform="translate(25,128)"/>
<path d="M0 0 C0.66 0.33 1.32 0.66 2 1 C1.38545304 4.99455527 -0.70646737 7.74466336 -3 11 C-1.35 11.33 0.3 11.66 2 12 C2 12.33 2 12.66 2 13 C-0.31 13 -2.62 13 -5 13 C-5.625 10.6875 -5.625 10.6875 -6 8 C-4 5 -4 5 -1 4 C-0.26676204 1.98491642 -0.26676204 1.98491642 0 0 Z " fill="#612825" transform="translate(148,128)"/>
<path d="M0 0 C1.66611905 -0.042721 3.33382885 -0.04063832 5 0 C6 1 6 1 6.0625 3.5625 C6.041875 4.366875 6.02125 5.17125 6 6 C4.02 6.99 4.02 6.99 2 8 C2 7.34 2 6.68 2 6 C1.01 5.67 0.02 5.34 -1 5 C-0.67 3.35 -0.34 1.7 0 0 Z " fill="#6F0201" transform="translate(80,170)"/>
<path d="M0 0 C2.75 0.25 2.75 0.25 5 1 C4.67 1.66 4.34 2.32 4 3 C2.68 3 1.36 3 0 3 C-0.99 4.485 -0.99 4.485 -2 6 C-5.125 6.1875 -5.125 6.1875 -8 6 C-8 8.64 -8 11.28 -8 14 C-9.88391785 10.73454239 -10.49287967 7.71888239 -11 4 C-9.9275 4.0825 -8.855 4.165 -7.75 4.25 C-3.31378231 3.95425215 -2.9379554 3.03588725 0 0 Z " fill="#610908" transform="translate(151,49)"/>
<path d="M0 0 C2.46800047 1.15173355 4.04783565 2.04783565 6 4 C6 4.99 6 5.98 6 7 C5.01 7.66 4.02 8.32 3 9 C3 9.99 3 10.98 3 12 C3.99 12.33 4.98 12.66 6 13 C5.67 13.66 5.34 14.32 5 15 C2.69 14.34 0.38 13.68 -2 13 C-0.92598892 10.08482708 -0.22189824 8.22189824 2 6 C1.64644564 3.73725212 1.02455574 2.04911148 0 0 Z " fill="#75100F" transform="translate(147,126)"/>
<path d="M0 0 C2.80549222 1.14297831 4.28506374 2.29237307 6.4375 4.5 C8.95063538 6.9518394 10.69600416 7.96160131 14 9 C11 10 11 10 7.5625 9.5 C4.467467 9.0656094 2.86267668 8.9694364 0 10 C0.66 9.34 1.32 8.68 2 8 C2.38286803 4.26703674 2.14915785 3.22373677 0 0 Z " fill="#3F0807" transform="translate(116,180)"/>
<path d="M0 0 C2.31 0.33 4.62 0.66 7 1 C7.66 2.98 8.32 4.96 9 7 C8.01 6.67 7.02 6.34 6 6 C6 5.34 6 4.68 6 4 C3.03 4.66 0.06 5.32 -3 6 C-2.01 4.02 -1.02 2.04 0 0 Z " fill="#5C3E3D" transform="translate(95,134)"/>
<path d="M0 0 C2.31 0 4.62 0 7 0 C7 1.32 7 2.64 7 4 C4.49515403 6.41847197 3.53986194 7 0 7 C0 4.69 0 2.38 0 0 Z " fill="#462727" transform="translate(0,0)"/>
<path d="M0 0 C1.2065625 0.0309375 1.2065625 0.0309375 2.4375 0.0625 C2.4375 2.3725 2.4375 4.6825 2.4375 7.0625 C-0.5325 6.5675 -0.5325 6.5675 -3.5625 6.0625 C-3.605221 4.39638095 -3.60313832 2.72867115 -3.5625 1.0625 C-2.5625 0.0625 -2.5625 0.0625 0 0 Z " fill="#BD0E09" transform="translate(167.5625,123.9375)"/>
<path d="M0 0 C1.43678834 2.87357668 1.05613464 5.36633421 1 8.5625 C0.96240081 10.7080039 0.95329905 12.85467492 1 15 C2.11836224 16.34404775 2.11836224 16.34404775 5 16.125 C7.88163776 16.34404775 7.88163776 16.34404775 9 15 C10.99958364 14.95919217 13.00045254 14.95745644 15 15 C15 15.33 15 15.66 15 16 C13.27708363 16.5612302 11.54626261 17.09822933 9.8125 17.625 C8.84957031 17.92664063 7.88664062 18.22828125 6.89453125 18.5390625 C3.56284172 19.06961495 1.96704544 18.50793169 -1 17 C-1.02684679 14.35409986 -1.04676357 11.70846904 -1.0625 9.0625 C-1.07087891 8.30775391 -1.07925781 7.55300781 -1.08789062 6.77539062 C-1.09652441 4.85005687 -1.05224333 2.92464419 -1 1 C-0.67 0.67 -0.34 0.34 0 0 Z " fill="#4F4644" transform="translate(75,90)"/>
<path d="M0 0 C0.33 0 0.66 0 1 0 C1.06058594 1.07121094 1.12117188 2.14242187 1.18359375 3.24609375 C1.26798537 4.64324391 1.35263406 6.04037857 1.4375 7.4375 C1.47681641 8.14455078 1.51613281 8.85160156 1.55664062 9.58007812 C1.47624438 13.08690419 1.47624438 13.08690419 3 16 C3.04063832 17.66617115 3.042721 19.33388095 3 21 C2.34 21 1.68 21 1 21 C-0.88838257 14.74473275 -3.06813187 6.13626374 0 0 Z " fill="#552D2C" transform="translate(44,67)"/>
<path d="M0 0 C1.98 0 3.96 0 6 0 C6 1.98 6 3.96 6 6 C3.69 6 1.38 6 -1 6 C-0.67 4.02 -0.34 2.04 0 0 Z " fill="#4E2626" transform="translate(164,0)"/>
<path d="M0 0 C1.98 0.495 1.98 0.495 4 1 C3.01 1.99 2.02 2.98 1 4 C1.99 4.33 2.98 4.66 4 5 C4 6.65 4 8.3 4 10 C2.35 10 0.7 10 -1 10 C-1.125 3.375 -1.125 3.375 0 0 Z " fill="#660000" transform="translate(76,190)"/>
<path d="M0 0 C0 0.99 0 1.98 0 3 C3.465 4.485 3.465 4.485 7 6 C2.99799622 7.60080151 -0.04556236 6.29279692 -4 5 C-3.67 4.34 -3.34 3.68 -3 3 C-7.07964281 4.30155006 -7.07964281 4.30155006 -11 6 C-10.03628506 3.59071265 -9.34789837 2.23992991 -7.1875 0.75 C-4.67678635 -0.11081611 -2.63651351 -0.14647297 0 0 Z " fill="#423433" transform="translate(111,158)"/>
<path d="M0 0 C2.31 0 4.62 0 7 0 C7.33 1.65 7.66 3.3 8 5 C5.36 5 2.72 5 0 5 C0 3.35 0 1.7 0 0 Z " fill="#690000" transform="translate(122,195)"/>
<path d="M0 0 C0.33 0 0.66 0 1 0 C1.33 2.64 1.66 5.28 2 8 C0.54077307 7.88590407 -0.91740598 7.75834456 -2.375 7.625 C-3.59316406 7.52058594 -3.59316406 7.52058594 -4.8359375 7.4140625 C-7 7 -7 7 -9 5 C-7.02 5 -5.04 5 -3 5 C-3.33 3.68 -3.66 2.36 -4 1 C-2.68 1.33 -1.36 1.66 0 2 C0 1.34 0 0.68 0 0 Z " fill="#421D1C" transform="translate(74,140)"/>
<path d="M0 0 C3.06685123 2.30013842 4.76868671 3.58966265 5.40234375 7.453125 C5.49193548 14.26209677 5.49193548 14.26209677 3 18 C2.92652344 16.73542969 2.92652344 16.73542969 2.8515625 15.4453125 C2.77679688 14.34960938 2.70203125 13.25390625 2.625 12.125 C2.55539063 11.03445312 2.48578125 9.94390625 2.4140625 8.8203125 C2.26746509 5.86953526 2.26746509 5.86953526 0 4 C0 2.68 0 1.36 0 0 Z " fill="#4C1010" transform="translate(71,63)"/>
<path d="M0 0 C0 0.33 0 0.66 0 1 C-0.99 1.020625 -1.98 1.04125 -3 1.0625 C-8.2130745 1.74478378 -11.4126785 5.43131394 -15 9 C-15 5.45459812 -14.40614728 4.93992636 -12.125 2.375 C-11.59132813 1.76398437 -11.05765625 1.15296875 -10.5078125 0.5234375 C-6.96788975 -3.05316838 -4.45826892 -1.4035291 0 0 Z " fill="#585354" transform="translate(61,58)"/>
<path d="M0 0 C6.875 0.875 6.875 0.875 8 2 C9.51469448 2.23192865 11.03754562 2.41215238 12.5625 2.5625 C13.38878906 2.64628906 14.21507812 2.73007813 15.06640625 2.81640625 C15.70449219 2.87699219 16.34257813 2.93757812 17 3 C17 3.66 17 4.32 17 5 C15.39592672 5.02708567 13.7917215 5.04643483 12.1875 5.0625 C10.84751953 5.07990234 10.84751953 5.07990234 9.48046875 5.09765625 C7 5 7 5 4 4 C4 3.34 4 2.68 4 2 C2.68 1.67 1.36 1.34 0 1 C0 0.67 0 0.34 0 0 Z " fill="#3B1110" transform="translate(28,150)"/>
<path d="M0 0 C1.42805683 0.10720352 2.85424772 0.24222944 4.27734375 0.40234375 C4.99728516 0.45583984 5.71722656 0.50933594 6.45898438 0.56445312 C10.1020927 0.88580437 12.12460739 1.27968618 15.21484375 3.33984375 C14.88484375 3.99984375 14.55484375 4.65984375 14.21484375 5.33984375 C13.67601563 5.015 13.1371875 4.69015625 12.58203125 4.35546875 C7.06727515 1.98940178 0.12783077 2.82971388 -5.53515625 4.33984375 C-6.27765625 4.66984375 -7.02015625 4.99984375 -7.78515625 5.33984375 C-5.47103307 1.46685953 -4.60537587 0.41348576 0 0 Z " fill="#504747" transform="translate(107.78515625,56.66015625)"/>
<path d="M0 0 C2.0622048 -0.054348 4.12482816 -0.09294961 6.1875 -0.125 C7.33605469 -0.14820313 8.48460938 -0.17140625 9.66796875 -0.1953125 C12.96815843 -0.00186645 15.11415741 0.41069539 18 2 C19.3125 5.125 19.3125 5.125 20 8 C19.113125 7.21625 18.22625 6.4325 17.3125 5.625 C12.17543888 1.87834179 6.167341 1.6213712 0 1 C0 0.67 0 0.34 0 0 Z " fill="#4B1515" transform="translate(107,60)"/>
<path d="M0 0 C1.98 0 3.96 0 6 0 C5.67 1.65 5.34 3.3 5 5 C3.0625 5.5625 3.0625 5.5625 1 6 C0 5 0 5 -0.0625 2.4375 C-0.041875 1.633125 -0.02125 0.82875 0 0 Z " fill="#7B0200" transform="translate(160,190)"/>
<path d="M0 0 C0 0.33 0 0.66 0 1 C-0.62648437 1.02578125 -1.25296875 1.0515625 -1.8984375 1.078125 C-2.71570313 1.13484375 -3.53296875 1.1915625 -4.375 1.25 C-5.18710938 1.29640625 -5.99921875 1.3428125 -6.8359375 1.390625 C-9.18838927 1.7922092 -9.18838927 1.7922092 -10.2890625 4.046875 C-10.52367187 4.69140625 -10.75828125 5.3359375 -11 6 C-12.65 6 -14.3 6 -16 6 C-16 5.01 -16 4.02 -16 3 C-11.48267456 -1.20578575 -5.75838972 -0.27228813 0 0 Z " fill="#5C0704" transform="translate(161,179)"/>
<path d="M0 0 C-1 3 -1 3 -2.765625 4.1796875 C-5.25718223 5.09442005 -7.10616836 5.20275975 -9.75 5.125 C-10.54921875 5.10695313 -11.3484375 5.08890625 -12.171875 5.0703125 C-12.77515625 5.04710938 -13.3784375 5.02390625 -14 5 C-11.67684302 2.67684302 -10.12738825 2.27503325 -7 1.375 C-6.113125 1.11460938 -5.22625 0.85421875 -4.3125 0.5859375 C-2 0 -2 0 0 0 Z " fill="#541E1D" transform="translate(138,105)"/>
<path d="M0 0 C0.99 0 1.98 0 3 0 C3 1.98 3 3.96 3 6 C2.34 5.34 1.68 4.68 1 4 C-1.4732659 5.40374551 -3.66939168 6.66939168 -5.6875 8.6875 C-6.120625 9.120625 -6.55375 9.55375 -7 10 C-7.66 10 -8.32 10 -9 10 C-9 9.34 -9 8.68 -9 8 C-7.28515625 6.30859375 -7.28515625 6.30859375 -5.0625 4.4375 C-3.96615234 3.50744141 -3.96615234 3.50744141 -2.84765625 2.55859375 C-2.23792969 2.04425781 -1.62820312 1.52992187 -1 1 C-0.67 0.67 -0.34 0.34 0 0 Z " fill="#765554" transform="translate(30,47)"/>
<path d="M0 0 C0.66 0.33 1.32 0.66 2 1 C1.67 1.721875 1.34 2.44375 1 3.1875 C-0.00603529 6.01697427 -0.16977402 8.02895466 0 11 C-1.32 11 -2.64 11 -4 11 C-4.36630156 7.06225823 -4.30233203 5.43460229 -2 2.125 C-1.34 1.42375 -0.68 0.7225 0 0 Z " fill="#340000" transform="translate(110,189)"/>
<path d="M0 0 C2.62664903 0.0867572 5.24978082 0.19357981 7.875 0.3125 C8.62136719 0.33505859 9.36773437 0.35761719 10.13671875 0.38085938 C12.099604 0.47811945 14.05328322 0.73042294 16 1 C16.66 1.99 17.32 2.98 18 4 C17.67 4.99 17.34 5.98 17 7 C16.67 6.01 16.34 5.02 16 4 C12.17003917 2.72334639 8.50918011 2.62939106 4.49609375 2.37890625 C2 2 2 2 0 0 Z " fill="#4F1F1E" transform="translate(42,110)"/>
<path d="M0 0 C5.41110091 1.31978071 9.26441506 3.93285427 13 8 C13 8.66 13 9.32 13 10 C12.34 10 11.68 10 11 10 C11 9.34 11 8.68 11 8 C10.46375 7.731875 9.9275 7.46375 9.375 7.1875 C8.59125 6.795625 7.8075 6.40375 7 6 C5.948125 5.525625 4.89625 5.05125 3.8125 4.5625 C1 3 1 3 0 0 Z " fill="#544A4A" transform="translate(112,22)"/>
<path d="M0 0 C2.31 0 4.62 0 7 0 C7.33 1.65 7.66 3.3 8 5 C5.125 4.75 5.125 4.75 2 4 C0.625 1.9375 0.625 1.9375 0 0 Z " fill="#7D0000" transform="translate(64,63)"/>
<path d="M0 0 C2.97 0 5.94 0 9 0 C9 0.66 9 1.32 9 2 C8.195625 2.12375 7.39125 2.2475 6.5625 2.375 C5.2940625 2.684375 5.2940625 2.684375 4 3 C3.67 3.66 3.34 4.32 3 5 C2.01 5 1.02 5 0 5 C0 3.35 0 1.7 0 0 Z " fill="#760908" transform="translate(161,45)"/>
<path d="M0 0 C0.99 0.33 1.98 0.66 3 1 C2.34 2.65 1.68 4.3 1 6 C-5.625 6.25 -5.625 6.25 -9 4 C-6.03 4 -3.06 4 0 4 C0 2.68 0 1.36 0 0 Z " fill="#301E1E" transform="translate(143,186)"/>
<path d="M0 0 C0 0.33 0 0.66 0 1 C-1.56116819 1.33951619 -3.12401338 1.67132544 -4.6875 2 C-5.99267578 2.2784375 -5.99267578 2.2784375 -7.32421875 2.5625 C-9.93712964 2.98972047 -12.35813038 3.07616201 -15 3 C-13.35393205 1.00739143 -12.22453065 0.07484355 -9.75 -0.75 C-6.36327224 -1.05788434 -3.33854427 -0.58915487 0 0 Z " fill="#6B0D0C" transform="translate(147,125)"/>
<path d="M0 0 C1.32 0 2.64 0 4 0 C4 1.98 4 3.96 4 6 C2.68 5.67 1.36 5.34 0 5 C-0.5625 3.0625 -0.5625 3.0625 -1 1 C-0.67 0.67 -0.34 0.34 0 0 Z " fill="#AE0806" transform="translate(166,74)"/>
<path d="M0 0 C0.33 0 0.66 0 1 0 C0.67 4.95 0.34 9.9 0 15 C-0.33 15 -0.66 15 -1 15 C-1.41815082 13.25519803 -1.80873982 11.50377443 -2.1875 9.75 C-2.40792969 8.77546875 -2.62835937 7.8009375 -2.85546875 6.796875 C-3 4 -3 4 -1.61328125 1.640625 C-1.08089844 1.09921875 -0.54851563 0.5578125 0 0 Z " fill="#614443" transform="translate(31,50)"/>
<path d="M0 0 C0.33 0.99 0.66 1.98 1 3 C-0.43359375 5.04296875 -0.43359375 5.04296875 -2.4375 7.1875 C-3.09621094 7.90292969 -3.75492188 8.61835937 -4.43359375 9.35546875 C-4.95050781 9.89816406 -5.46742187 10.44085938 -6 11 C-6.33 10.01 -6.66 9.02 -7 8 C-5.56640625 5.95703125 -5.56640625 5.95703125 -3.5625 3.8125 C-2.90378906 3.09707031 -2.24507812 2.38164063 -1.56640625 1.64453125 C-1.04949219 1.10183594 -0.53257813 0.55914062 0 0 Z " fill="#857B7B" transform="translate(44,32)"/>
<path d="M0 0 C0.66 0 1.32 0 2 0 C2 3.63 2 7.26 2 11 C1.01 11.495 1.01 11.495 0 12 C-1.28571429 3.42857143 -1.28571429 3.42857143 0 0 Z " fill="#6A4746" transform="translate(163,7)"/>
<path d="M0 0 C0.33 1.32 0.66 2.64 1 4 C-0.5 5.125 -0.5 5.125 -3 6 C-5.7773082 5.57598348 -8.29639783 4.81108065 -11 4 C-11 3.67 -11 3.34 -11 3 C-9.1128125 3.0928125 -9.1128125 3.0928125 -7.1875 3.1875 C-3.83041021 3.23632922 -3.83041021 3.23632922 -1 1.5 C-0.67 1.005 -0.34 0.51 0 0 Z " fill="#5C5859" transform="translate(92,69)"/>
<path d="M0 0 C3.85645121 -0.22036864 6.49223216 0.39644899 10 2 C9.67 2.99 9.34 3.98 9 5 C7.68 4.67 6.36 4.34 5 4 C5 3.34 5 2.68 5 2 C3.35 2 1.7 2 0 2 C0 1.34 0 0.68 0 0 Z " fill="#261716" transform="translate(85,103)"/>
<path d="M0 0 C1.32 0 2.64 0 4 0 C4.66 1.32 5.32 2.64 6 4 C4.68 4 3.36 4 2 4 C1.34 5.32 0.68 6.64 0 8 C0 5.36 0 2.72 0 0 Z " fill="#790000" transform="translate(70,186)"/>
<path d="M0 0 C0.66 0.66 1.32 1.32 2 2 C0.515 4.475 0.515 4.475 -1 7 C0.65 6.67 2.3 6.34 4 6 C4 6.66 4 7.32 4 8 C2.02 8 0.04 8 -2 8 C-1.125 1.125 -1.125 1.125 0 0 Z " fill="#441615" transform="translate(107,136)"/>
<path d="M0 0 C0.78375 0.04125 1.5675 0.0825 2.375 0.125 C2.375 0.785 2.375 1.445 2.375 2.125 C1.385 2.785 0.395 3.445 -0.625 4.125 C0.035 4.785 0.695 5.445 1.375 6.125 C0.055 5.795 -1.265 5.465 -2.625 5.125 C-2.625 4.465 -2.625 3.805 -2.625 3.125 C-3.285 2.795 -3.945 2.465 -4.625 2.125 C-2.625 0.125 -2.625 0.125 0 0 Z " fill="#980A0A" transform="translate(167.625,107.875)"/>
<path d="M0 0 C2.97 0 5.94 0 9 0 C9 0.66 9 1.32 9 2 C7.88625 2.12375 6.7725 2.2475 5.625 2.375 C1.96896323 2.6465813 1.96896323 2.6465813 0 5 C0 3.35 0 1.7 0 0 Z " fill="#6C5655" transform="translate(7,6)"/>
<path d="M0 0 C0.33 0.99 0.66 1.98 1 3 C0.525625 3.391875 0.05125 3.78375 -0.4375 4.1875 C-2.35179633 6.40808374 -2.61266988 8.13375709 -3 11 C-3.33 11 -3.66 11 -4 11 C-3.91291331 9.54054712 -3.80473093 8.08234132 -3.6875 6.625 C-3.62949219 5.81289062 -3.57148437 5.00078125 -3.51171875 4.1640625 C-3 2 -3 2 0 0 Z " fill="#5C0000" transform="translate(53,189)"/>
<path d="M0 0 C6.52307692 0.49230769 6.52307692 0.49230769 8.9375 3.0625 C9.288125 3.701875 9.63875 4.34125 10 5 C5.2482602 4.56802365 3.07999946 3.67230705 0 0 Z " fill="#521A19" transform="translate(100,84)"/>
<path d="M0 0 C0.99 0 1.98 0 3 0 C3 1.65 3 3.3 3 5 C1.68 5 0.36 5 -1 5 C-0.67 3.35 -0.34 1.7 0 0 Z " fill="#870000" transform="translate(112,195)"/>
<path d="M0 0 C-0.66 2.97 -1.32 5.94 -2 9 C-2.33 9 -2.66 9 -3 9 C-3 7.35 -3 5.7 -3 4 C-3.66 3.67 -4.32 3.34 -5 3 C-2.25 0 -2.25 0 0 0 Z " fill="#680000" transform="translate(118,191)"/>
<path d="M0 0 C0.556875 0.28875 1.11375 0.5775 1.6875 0.875 C4.08494645 2.0413253 6.51596939 3.0339881 9 4 C5.52176885 5.15941038 3.54104422 4.70820884 0 4 C0 2.68 0 1.36 0 0 Z " fill="#4E0D0A" transform="translate(121,185)"/>
<path d="M0 0 C-0.33 0.66 -0.66 1.32 -1 2 C-3.64860427 2.59355614 -6.29197322 2.74209269 -9 3 C-6.38997624 -0.48003168 -4.1689578 -0.27793052 0 0 Z " fill="#371717" transform="translate(49,187)"/>
<path d="M0 0 C2.97 1.98 2.97 1.98 6 4 C5.67 5.32 5.34 6.64 5 8 C2.2175651 6.60878255 1.44789935 4.69835788 0 2 C0 1.34 0 0.68 0 0 Z " fill="#7E0202" transform="translate(153,164)"/>
<path d="M0 0 C-0.6875 1.9375 -0.6875 1.9375 -2 4 C-4.625 4.75 -4.625 4.75 -7 5 C-2.25 0 -2.25 0 0 0 Z " fill="#3F2828" transform="translate(52,182)"/>
<path d="M0 0 C2.475 0.495 2.475 0.495 5 1 C4.67 2.32 4.34 3.64 4 5 C2.68 4.67 1.36 4.34 0 4 C0.66 3.01 1.32 2.02 2 1 C1.34 0.67 0.68 0.34 0 0 Z " fill="#3C1E1C" transform="translate(59,157)"/>
<path d="M0 0 C0 0.33 0 0.66 0 1 C-3.63 1 -7.26 1 -11 1 C-11 0.67 -11 0.34 -11 0 C-6.53464227 -1.86921951 -4.33629181 -2.2956839 0 0 Z " fill="#483938" transform="translate(57,110)"/>
<path d="M0 0 C0.6875 1.6875 0.6875 1.6875 1 4 C-0.3125 6.75 -0.3125 6.75 -2 9 C-2.66 9 -3.32 9 -4 9 C-3.67 7.68 -3.34 6.36 -3 5 C-2.34 5.33 -1.68 5.66 -1 6 C-0.67 4.02 -0.34 2.04 0 0 Z " fill="#453031" transform="translate(105,135)"/>
<path d="M0 0 C1.2065625 0.0309375 1.2065625 0.0309375 2.4375 0.0625 C1.1175 0.3925 -0.2025 0.7225 -1.5625 1.0625 C-1.665625 1.68125 -1.76875 2.3 -1.875 2.9375 C-2.5625 5.0625 -2.5625 5.0625 -5.5625 7.0625 C-3.33446653 0.08132845 -3.33446653 0.08132845 0 0 Z " fill="#291C1A" transform="translate(84.5625,72.9375)"/>
</svg>
